<svg width="1430" height="524" viewBox="0 0 1430 524" fill="none" xmlns="http://www.w3.org/2000/svg">
<g filter="url(#filter0_d_0_1)">
<path d="M201.583 264.554L178.749 216.154" stroke="#656565" stroke-width="12"/>
<path d="M226.928 188.599L178.75 216.153" stroke="#656565" stroke-width="12"/>
<path d="M226.367 189.194H246.019" stroke="#AE8B68" stroke-width="12"/>
<path fill-rule="evenodd" clip-rule="evenodd" d="M186.891 268.956H229.739C229.739 265.058 226.58 261.899 222.682 261.899H193.948C190.05 261.899 186.891 265.058 186.891 268.956Z" fill="#919191"/>
<path fill-rule="evenodd" clip-rule="evenodd" d="M264.073 205.333C264.073 195.361 255.99 187.278 246.019 187.278C236.048 187.278 227.966 195.361 227.966 205.333" fill="#936536"/>
<path fill-rule="evenodd" clip-rule="evenodd" d="M137.222 446.568H141.269L166.134 280.896H152.141L137.222 446.568Z" fill="#783F04"/>
<path fill-rule="evenodd" clip-rule="evenodd" d="M208.062 446.568H212.108L236.974 280.896H222.981L208.062 446.568Z" fill="#783F04"/>
<path fill-rule="evenodd" clip-rule="evenodd" d="M307.32 218.236H367.813L353.619 265.035H293.126L307.32 218.236Z" fill="#515151"/>
<path fill-rule="evenodd" clip-rule="evenodd" d="M363.555 221.247L351.437 261.205H297.303L309.421 221.247H363.555Z" fill="white"/>
<path fill-rule="evenodd" clip-rule="evenodd" d="M353.674 233.545L353.097 235.456H308.661L309.238 233.545H353.674Z" fill="#86ABCE"/>
<path fill-rule="evenodd" clip-rule="evenodd" d="M350.839 237.437L350.262 239.347H307.281L307.858 237.437H350.839Z" fill="#86ABCE"/>
<path fill-rule="evenodd" clip-rule="evenodd" d="M337.374 241.329L336.797 243.24H305.938L306.515 241.329H337.374Z" fill="#86ABCE"/>
<path fill-rule="evenodd" clip-rule="evenodd" d="M248.893 268.883H309.386V265.035H248.893V268.883Z" fill="#858585"/>
<path fill-rule="evenodd" clip-rule="evenodd" d="M309.385 268.883H353.597V265.035H309.385V268.883Z" fill="#D3D3D3"/>
<path fill-rule="evenodd" clip-rule="evenodd" d="M367.763 218.236H371.48L357.286 265.035H353.569L367.763 218.236Z" fill="#D3D3D3"/>
<path fill-rule="evenodd" clip-rule="evenodd" d="M120.868 280.896H349.381V268.884H120.868V280.896Z" fill="#783F04"/>
<path fill-rule="evenodd" clip-rule="evenodd" d="M332.855 280.896H422.008V268.884H332.855V280.896Z" fill="#936536"/>
<path fill-rule="evenodd" clip-rule="evenodd" d="M410.693 446.568H414.74L399.821 280.896H385.828L410.693 446.568Z" fill="#936536"/>
<path fill-rule="evenodd" clip-rule="evenodd" d="M339.58 446.568H343.627L328.708 280.896H314.715L339.58 446.568Z" fill="#936536"/>
<path fill-rule="evenodd" clip-rule="evenodd" d="M355.893 225.996L355.316 227.906H310.88L311.457 225.996H355.893Z" fill="#86ABCE"/>
<path fill-rule="evenodd" clip-rule="evenodd" d="M349.98 229.887L349.403 231.798H309.816L310.393 229.887H349.98Z" fill="#86ABCE"/>
<path fill-rule="evenodd" clip-rule="evenodd" d="M340.732 220.745L333.172 221.66L332.566 220.709L332.965 219.842L332.389 219.152L339.453 218.236L340.519 218.873L339.626 219.766L340.732 220.745Z" fill="#86ABCE"/>
</g>
<g filter="url(#filter1_d_0_1)">
<path fill-rule="evenodd" clip-rule="evenodd" d="M133.124 328.22V329.046C133.124 335.934 127.781 341.514 121.195 341.514H27.7486C13.3346 341.514 2.24211 327.683 4.23135 312.185L14.7813 225.836C15.6948 218.684 21.3243 213.362 27.9768 213.362H55.6725C62.3205 213.362 67.9495 218.684 68.8686 225.836L79.4185 312.185C79.499 312.802 79.5562 313.419 79.59 314.031L79.6467 314.021C79.6467 314.021 81.5982 328.22 99.7375 328.22H133.124Z" fill="#535353"/>
<path fill-rule="evenodd" clip-rule="evenodd" d="M33.6431 438.781C33.6431 443.185 30.0725 446.756 25.6688 446.756C21.2646 446.756 17.6949 443.185 17.6949 438.781C17.6949 434.377 21.2646 430.807 25.6688 430.807C30.0725 430.807 33.6431 434.377 33.6431 438.781Z" fill="#535353"/>
<path fill-rule="evenodd" clip-rule="evenodd" d="M106.408 440.38H27.6035C24.5854 440.38 22.1157 437.91 22.1157 434.892C22.1157 431.874 24.5854 429.403 27.6035 429.403H106.408C109.426 429.403 111.895 431.874 111.895 434.892C111.895 437.91 109.426 440.38 106.408 440.38Z" fill="#919191"/>
<path fill-rule="evenodd" clip-rule="evenodd" d="M62.962 437.77H71.0493V341.181H62.962V437.77Z" fill="#656565"/>
<path fill-rule="evenodd" clip-rule="evenodd" d="M94.7159 341.181L67.0053 353.802L39.2953 341.181H94.7159Z" fill="#656565"/>
<path fill-rule="evenodd" clip-rule="evenodd" d="M67.6184 440.38H57.3927C54.3741 440.38 51.9044 437.91 51.9044 434.892C51.9044 431.874 54.3741 429.403 57.3927 429.403H67.6184C70.6366 429.403 73.1062 431.874 73.1062 434.892C73.1062 437.91 70.6366 440.38 67.6184 440.38Z" fill="#535353"/>
<path fill-rule="evenodd" clip-rule="evenodd" d="M60.9105 438.781C60.9105 443.185 57.3403 446.756 52.9366 446.756C48.532 446.756 44.9623 443.185 44.9623 438.781C44.9623 434.377 48.532 430.807 52.9366 430.807C57.3403 430.807 60.9105 434.377 60.9105 438.781Z" fill="#535353"/>
<path fill-rule="evenodd" clip-rule="evenodd" d="M116.844 438.781C116.844 443.185 113.274 446.756 108.87 446.756C104.466 446.756 100.896 443.185 100.896 438.781C100.896 434.377 104.466 430.807 108.87 430.807C113.274 430.807 116.844 434.377 116.844 438.781Z" fill="#535353"/>
</g>
<g filter="url(#filter2_d_0_1)">
<path fill-rule="evenodd" clip-rule="evenodd" d="M434.67 447.403H447.865V404.53H434.67V447.403Z" fill="#936536"/>
<path fill-rule="evenodd" clip-rule="evenodd" d="M544.583 447.403H557.779V404.53H544.583V447.403Z" fill="#936536"/>
<path fill-rule="evenodd" clip-rule="evenodd" d="M481.472 447.403H494.667V404.53H481.472V447.403Z" fill="#783F04"/>
<path fill-rule="evenodd" clip-rule="evenodd" d="M591.385 447.403H604.581V404.53H591.385V447.403Z" fill="#783F04"/>
<path fill-rule="evenodd" clip-rule="evenodd" d="M481.396 412.137H604.505V47.9498H481.396V412.137Z" fill="#783F04"/>
<path fill-rule="evenodd" clip-rule="evenodd" d="M434.918 412.137H558.027V47.9498H434.918V412.137Z" fill="#936536"/>
<path fill-rule="evenodd" clip-rule="evenodd" d="M518.698 23.1852C518.698 33.6494 513.17 42.8305 504.879 47.9497H474.442C466.15 42.8305 460.622 33.6494 460.622 23.1852C460.622 18.3157 461.82 13.7311 463.932 9.70508H515.389C517.5 13.7311 518.698 18.3157 518.698 23.1852Z" fill="#FFDA79"/>
<path fill-rule="evenodd" clip-rule="evenodd" d="M526.417 47.9434H538.967V0H526.417V47.9434Z" fill="#674EA7"/>
<path fill-rule="evenodd" clip-rule="evenodd" d="M513.867 47.9434H526.417V0H513.867V47.9434Z" fill="#A394CA"/>
<path fill-rule="evenodd" clip-rule="evenodd" d="M538.967 47.9434H551.516V0H538.967V47.9434Z" fill="#DA99BB"/>
<path fill-rule="evenodd" clip-rule="evenodd" d="M585.229 47.9434H551.516V0H585.229C586.637 0 587.779 1.14141 587.779 2.5504V45.393C587.779 46.8015 586.637 47.9434 585.229 47.9434Z" fill="#A30055"/>
<path fill-rule="evenodd" clip-rule="evenodd" d="M562.576 19.0554H576.72V14.3082H562.576V19.0554Z" fill="#610033"/>
<path fill-rule="evenodd" clip-rule="evenodd" d="M445.938 400.137H547.054V295.315H445.938V400.137Z" fill="#AE8B68"/>
<path fill-rule="evenodd" clip-rule="evenodd" d="M445.939 400.137H480.823V295.315H445.939V400.137Z" fill="#783F04"/>
<path fill-rule="evenodd" clip-rule="evenodd" d="M445.938 282.307H547.054V177.486H445.938V282.307Z" fill="#AE8B68"/>
<path fill-rule="evenodd" clip-rule="evenodd" d="M445.939 282.307H480.823V177.486H445.939V282.307Z" fill="#783F04"/>
<path fill-rule="evenodd" clip-rule="evenodd" d="M445.938 164.477H547.054V59.6559H445.938V164.477Z" fill="#AE8B68"/>
<path fill-rule="evenodd" clip-rule="evenodd" d="M445.939 164.477H480.823V59.6559H445.939V164.477Z" fill="#783F04"/>
<path fill-rule="evenodd" clip-rule="evenodd" d="M470.149 400.137H480.157V361.904H470.149V400.137Z" fill="#55A300"/>
<path fill-rule="evenodd" clip-rule="evenodd" d="M460.141 400.137H470.149V361.904H460.141V400.137Z" fill="#88BE4C"/>
<path fill-rule="evenodd" clip-rule="evenodd" d="M480.157 400.137H490.165V361.904H480.157V400.137Z" fill="#3276B5"/>
<path fill-rule="evenodd" clip-rule="evenodd" d="M516.532 400.137H490.165V361.903H516.532C517.941 361.903 519.083 363.045 519.083 364.454V397.586C519.083 398.995 517.941 400.137 516.532 400.137Z" fill="#0055A3"/>
<path fill-rule="evenodd" clip-rule="evenodd" d="M494.45 371.259H514.797V367.474H494.45V371.259Z" fill="#002D57"/>
<path fill-rule="evenodd" clip-rule="evenodd" d="M498.984 377.099H510.263V373.314H498.984V377.099Z" fill="#002D57"/>
<path fill-rule="evenodd" clip-rule="evenodd" d="M505.179 148.244C504.403 154.764 501.101 160.513 496.277 164.477H464.732C459.909 160.513 456.606 154.764 455.826 148.244H505.179Z" fill="#936257"/>
<path fill-rule="evenodd" clip-rule="evenodd" d="M505.179 134.692C503.711 147.015 493.222 156.575 480.503 156.575C467.783 156.575 457.296 147.015 455.827 134.692H505.179Z" fill="#936257"/>
<path fill-rule="evenodd" clip-rule="evenodd" d="M505.179 121.16C504.403 127.68 501.101 133.43 496.277 137.393H464.732C459.909 133.43 456.606 127.68 455.826 121.16H505.179Z" fill="#936257"/>
<path fill-rule="evenodd" clip-rule="evenodd" d="M505.179 107.608C503.711 119.931 493.222 129.492 480.503 129.492C467.783 129.492 457.296 119.931 455.827 107.608H505.179Z" fill="#936257"/>
<path fill-rule="evenodd" clip-rule="evenodd" d="M488.929 257.126C488.929 266.722 487.906 275.5 486.2 282.307H468.325C466.622 275.5 465.595 266.722 465.595 257.126" fill="#D5D5D5"/>
<path fill-rule="evenodd" clip-rule="evenodd" d="M488.044 261.343C492.097 262.143 494.735 266.078 493.934 270.131C493.134 274.185 489.2 276.822 485.146 276.022" fill="#D5D5D5"/>
<path d="M488.044 261.343C492.097 262.143 494.735 266.078 493.934 270.131C493.134 274.185 489.2 276.822 485.146 276.022" stroke="#D4D4D4" stroke-width="8"/>
<path fill-rule="evenodd" clip-rule="evenodd" d="M524.735 257.126C524.735 266.722 523.712 275.5 522.006 282.307H504.131C502.429 275.5 501.402 266.722 501.402 257.126" fill="#D5D5D5"/>
<path fill-rule="evenodd" clip-rule="evenodd" d="M519.975 261.343C524.028 262.143 526.666 266.078 525.865 270.131C525.065 274.185 521.131 276.822 517.078 276.022" fill="#D5D5D5"/>
<path d="M519.975 261.343C524.028 262.143 526.666 266.078 525.865 270.131C525.065 274.185 521.131 276.822 517.078 276.022" stroke="#D4D4D4" stroke-width="8"/>
</g>
<g filter="url(#filter3_d_0_1)">
<path fill-rule="evenodd" clip-rule="evenodd" d="M270.061 14.8091H59.6109V5.96826H270.061V14.8091Z" fill="#936536"/>
<path fill-rule="evenodd" clip-rule="evenodd" d="M59.611 14.8091H24.9893V5.96826H59.611V14.8091Z" fill="#AE8B68"/>
<path fill-rule="evenodd" clip-rule="evenodd" d="M218.768 14.809L202.333 40.5945V14.809H218.768Z" fill="#783F04"/>
<path fill-rule="evenodd" clip-rule="evenodd" d="M227.862 14.809L211.428 40.5945H202.334L218.768 14.809H227.862Z" fill="#AE8B68"/>
<path fill-rule="evenodd" clip-rule="evenodd" d="M98.2319 14.809L81.7974 40.5945V14.809H98.2319Z" fill="#783F04"/>
<path fill-rule="evenodd" clip-rule="evenodd" d="M107.326 14.809L90.8918 40.5945H81.797L98.2316 14.809H107.326Z" fill="#AE8B68"/>
</g>
<g filter="url(#filter4_d_0_1)">
<path fill-rule="evenodd" clip-rule="evenodd" d="M288.311 111.962C288.311 129.573 272.589 143.85 253.195 143.85C233.801 143.85 218.079 129.573 218.079 111.962C218.079 94.3499 233.801 80.073 253.195 80.073C272.589 80.073 288.311 94.3499 288.311 111.962Z" fill="#8d410e"/>
<path fill-rule="evenodd" clip-rule="evenodd" d="M225.781 190.86L199.894 187.207C185.127 185.124 174.749 171.336 176.833 156.568C178.916 141.8 192.703 131.421 207.47 133.504L233.357 137.157C248.124 139.24 258.501 153.028 256.418 167.796C254.335 182.564 240.549 192.943 225.781 190.86Z" fill="#8D410E"/>
<path fill-rule="evenodd" clip-rule="evenodd" d="M229.808 146.25L208.364 143.224C197.79 141.732 190.36 131.859 191.852 121.285C193.343 110.71 203.215 103.279 213.789 104.771L235.232 107.796C245.806 109.288 253.237 119.16 251.745 129.735C250.254 140.31 240.382 147.742 229.808 146.25Z" fill="#8D410E"/>
<path fill-rule="evenodd" clip-rule="evenodd" d="M223.06 116.816C213.671 115.491 207.073 106.724 208.397 97.3349H208.398C209.722 87.9455 218.488 81.3467 227.877 82.6716C237.265 83.996 243.864 92.7623 242.539 102.152C241.214 111.542 232.449 118.141 223.06 116.816Z" fill="#8D410E"/>
<path fill-rule="evenodd" clip-rule="evenodd" d="M258.546 150.147C258.546 150.147 252.116 150.337 249.375 148.84L258.204 154.384L258.546 150.147Z" fill="#FFC9A3"/>
<mask id="mask0_0_1" style="mask-type:alpha" maskUnits="userSpaceOnUse" x="234" y="105" width="50" height="60">
<path d="M244.515 137.393C246.535 140.619 245.708 144.87 244.556 147.353C244.167 148.207 241.639 155.363 241.271 155.687C239.837 156.944 257.38 164.591 257.38 164.591L258.546 150.147C263.632 150.44 269.6 150.172 272.879 147.992C282.643 141.496 283.221 118.974 283.061 117.848L274.872 108.686C274.872 108.686 260.439 103.257 258.56 105.68C255.122 110.119 249.159 129.705 243.334 127.439C243.334 127.439 244.069 121.264 238.915 121.271C235.076 121.277 234.035 124.358 234.038 126.137C234.047 132.143 241.803 133.046 244.515 137.393Z" fill="white"/>
</mask>
<g mask="url(#mask0_0_1)">
<path d="M244.515 137.393C246.535 140.619 245.708 144.87 244.556 147.353C244.167 148.207 241.639 155.363 241.271 155.687C239.837 156.944 257.38 164.591 257.38 164.591L258.546 150.147C263.632 150.44 269.6 150.172 272.879 147.992C282.643 141.496 283.221 118.974 283.061 117.848L274.872 108.686C274.872 108.686 260.439 103.257 258.56 105.68C255.122 110.119 249.159 129.705 243.334 127.439C243.334 127.439 244.069 121.264 238.915 121.271C235.076 121.277 234.035 124.358 234.038 126.137C234.047 132.143 241.803 133.046 244.515 137.393Z" fill="#ED4848"/>
<path d="M285.975 111.903H232.762V166.114H285.975V111.903Z" fill="#FFC9A3"/>
</g>
<path fill-rule="evenodd" clip-rule="evenodd" d="M272.525 127.428L276.205 136.35L271.936 136.265L272.525 127.428Z" fill="#F39E99"/>
<path fill-rule="evenodd" clip-rule="evenodd" d="M268.607 127.814C268.515 129.597 267.467 130.986 266.266 130.916C265.064 130.847 264.165 129.346 264.256 127.564C264.348 125.781 265.396 124.393 266.597 124.462C267.799 124.531 268.699 126.032 268.607 127.814Z" fill="#0D0B6D"/>
<path fill-rule="evenodd" clip-rule="evenodd" d="M279.889 127.53C279.797 129.312 278.75 130.701 277.548 130.632C276.347 130.563 275.447 129.062 275.539 127.279C275.631 125.497 276.678 124.108 277.88 124.177C279.081 124.246 279.981 125.747 279.889 127.53Z" fill="#0D0B6D"/>
<path d="M270.888 140.538C270.888 140.538 268.106 141.436 265.319 138.336" stroke="#1C295E" stroke-width="3"/>
<path opacity="0.401762" fill-rule="evenodd" clip-rule="evenodd" d="M258.536 150.147C258.536 150.147 252.105 150.337 249.364 148.839L258.194 154.383L258.536 150.147Z" fill="black"/>
<path fill-rule="evenodd" clip-rule="evenodd" d="M259.931 105.959C260.659 108.365 261.808 110.541 263.28 112.437C263.471 112.671 263.664 112.915 263.871 113.143C265.209 114.699 266.772 116.043 268.499 117.142C273.157 120.099 279.03 121.279 284.922 120.095C285.223 120.033 285.518 119.968 285.815 119.89L283.598 112.57L283.592 112.571C283.529 112.341 283.461 112.118 283.392 111.889C280.657 102.855 274.833 95.5519 267.309 90.6828C265.91 89.7752 264.45 88.958 262.941 88.2269C260.894 91.1339 259.592 94.4876 259.202 97.9924C258.907 100.607 259.127 103.303 259.931 105.959Z" fill="#8D410E"/>
<path fill-rule="evenodd" clip-rule="evenodd" d="M243.334 127.415C243.334 127.415 260.443 130.139 266.431 108.639C272.626 86.3982 234.038 101.26 234.038 101.26L245.586 115.084L243.334 127.415Z" fill="#8D410E"/>
<path fill-rule="evenodd" clip-rule="evenodd" d="M249.367 145.476C249.367 151.457 244.519 156.306 238.539 156.306C232.558 156.306 227.71 151.457 227.71 145.476C227.71 139.496 232.558 134.647 238.539 134.647C244.519 134.647 249.367 139.496 249.367 145.476Z" fill="#8D410E"/>
</g>
<g filter="url(#filter5_d_0_1)">
<path fill-rule="evenodd" clip-rule="evenodd" d="M295.396 274.52C295.396 274.52 276.084 243.654 275.12 235.999C274.099 227.887 275.015 217.414 275.015 217.414L288.056 209.65L291.355 228.956L305.428 273.127" fill="#FFC9A3"/>
<mask id="mask1_0_1" style="mask-type:alpha" maskUnits="userSpaceOnUse" x="185" y="267" width="129" height="36">
<path d="M294.761 270.475C295.83 267.959 301.451 267.252 301.451 267.252C301.451 267.252 310.421 277.578 311.224 279.155C312.026 280.732 313.511 288.539 313.44 290.082C313.369 291.624 308.744 298.555 308.744 298.555C305.874 297.852 307.748 294.272 307.748 294.272C307.748 294.272 305.177 296.446 304.109 296.409C294.043 296.067 294.582 290.969 294.82 290.331C295.355 288.898 298.041 290.537 298.041 290.537C298.041 290.537 291.701 277.671 294.761 270.475ZM204.281 267.504L206.272 279.885C206.272 279.885 206.285 282.43 205.929 285.353C205.574 288.276 205.283 290.037 206.266 294.771C206.95 298.069 202.628 296.139 201.742 294.181C200.829 292.161 201.854 284.977 199.334 285.867C196.815 286.757 194.452 293.681 193.33 300.475C193.154 301.543 192.169 302.221 191.54 302.395C190.521 302.677 190.202 298.241 190.202 298.241C190.202 298.241 189.378 299.584 188.089 298.648C187.632 298.317 186.796 295.156 186.796 295.156C186.796 295.156 185.957 293.501 185.713 291.812C185.284 288.829 185.617 283.552 186.186 282.11C187.565 278.616 190.213 272.72 192.514 269.85C194.79 267.009 198.773 270.048 204.281 267.504Z" fill="white"/>
</mask>
<g mask="url(#mask1_0_1)">
<path d="M294.761 270.475C295.83 267.959 301.451 267.252 301.451 267.252C301.451 267.252 310.421 277.578 311.224 279.155C312.026 280.732 313.511 288.539 313.44 290.082C313.369 291.624 308.744 298.555 308.744 298.555C305.874 297.852 307.748 294.272 307.748 294.272C307.748 294.272 305.177 296.446 304.109 296.409C294.043 296.067 294.582 290.969 294.82 290.331C295.355 288.898 298.041 290.537 298.041 290.537C298.041 290.537 291.701 277.671 294.761 270.475ZM204.281 267.504L206.272 279.885C206.272 279.885 206.285 282.43 205.929 285.353C205.574 288.276 205.283 290.037 206.266 294.771C206.95 298.069 202.628 296.139 201.742 294.181C200.829 292.161 201.854 284.977 199.334 285.867C196.815 286.757 194.452 293.681 193.33 300.475C193.154 301.543 192.169 302.221 191.54 302.395C190.521 302.677 190.202 298.241 190.202 298.241C190.202 298.241 189.378 299.584 188.089 298.648C187.632 298.317 186.796 295.156 186.796 295.156C186.796 295.156 185.957 293.501 185.713 291.812C185.284 288.829 185.617 283.552 186.186 282.11C187.565 278.616 190.213 272.72 192.514 269.85C194.79 267.009 198.773 270.048 204.281 267.504Z" fill="#FFC9A3"/>
<path d="M313.326 267.076H184.523V302.388H313.326V267.076Z" fill="#FFC9A3"/>
</g>
<path opacity="0.152414" d="M300.097 276.55C300.097 276.55 301.51 281.886 306.357 283.548C308.052 284.13 307.628 290.993 311.783 290.172" stroke="black" stroke-width="3"/>
<path fill-rule="evenodd" clip-rule="evenodd" d="M191.833 268.559C191.833 268.559 191.222 226.529 194.064 219.608C196.906 212.686 202.05 203.406 202.05 203.406L217.306 212.989L209.123 225.439L203.483 267.901" fill="#FFC9A3"/>
<mask id="mask2_0_1" style="mask-type:alpha" maskUnits="userSpaceOnUse" x="190" y="150" width="116" height="123">
<path d="M240.624 160.54L242.05 150.199L263.777 153.195L262.592 161.789C268.97 162.404 273.312 163.649 277.375 167.38C290.425 179.361 291.384 224.212 291.384 224.212L305.175 271.336L293.826 272.758C293.826 272.758 274.829 247.582 270.632 234.045H231.717C231.717 234.045 232.085 230.021 231.17 224.207C229.967 216.603 225.645 210.933 225.645 210.933L217.828 220.551L204.281 268.536L191.833 270.769C191.833 270.769 188.098 231.543 195.653 210.122C202.257 191.387 214.307 171.04 223.716 165.112C229.689 161.347 235.3 160.521 240.624 160.54Z" fill="white"/>
</mask>
<g mask="url(#mask2_0_1)">
<path d="M240.624 160.54L242.05 150.199L263.777 153.195L262.592 161.789C268.97 162.404 273.312 163.649 277.375 167.38C290.425 179.361 291.384 224.212 291.384 224.212L305.175 271.336L293.826 272.758C293.826 272.758 274.829 247.582 270.632 234.045H231.717C231.717 234.045 232.085 230.021 231.17 224.207C229.967 216.603 225.645 210.933 225.645 210.933L217.828 220.551L204.281 268.536L191.833 270.769C191.833 270.769 188.098 231.543 195.653 210.122C202.257 191.387 214.307 171.04 223.716 165.112C229.689 161.347 235.3 160.521 240.624 160.54Z" fill="#C83820"/>
<path d="M305.867 150.199H189.497V272.547H305.867V150.199Z" fill="#F6B852"/>
</g>
<path opacity="0.195894" d="M274.493 234.567C276.089 214.303 287.132 210.019 279.175 187.294" stroke="black" stroke-width="3"/>
<path opacity="0.195894" d="M235.335 196.246L225.644 210.93" stroke="black" stroke-width="3"/>
</g>
<mask id="mask3_0_1" style="mask-type:alpha" maskUnits="userSpaceOnUse" x="215" y="500" width="117" height="16">
<path d="M231.433 501.112L243.535 500.505L244.828 515.783H215.974C222.29 503.361 231.433 501.112 231.433 501.112ZM300.656 501.074C300.656 501.074 323.433 507.045 331.996 515.926L291.004 516L292.119 500.812L300.656 501.074Z" fill="white"/>
</mask>
<g mask="url(#mask3_0_1)">
<path d="M231.433 501.112L243.535 500.505L244.828 515.783H215.974C222.29 503.361 231.433 501.112 231.433 501.112ZM300.656 501.074C300.656 501.074 323.433 507.045 331.996 515.926L291.004 516L292.119 500.812L300.656 501.074Z" fill="#0D0B6D"/>
<path d="M332.224 499.338H213.367V516.248H332.224V499.338Z" fill="#0D0B6D"/>
</g>
<g filter="url(#filter6_d_0_1)">
<mask id="mask4_0_1" style="mask-type:alpha" maskUnits="userSpaceOnUse" x="221" y="350" width="100" height="160">
<path d="M240.3 502.607C237.824 505.203 233.05 508.961 226.077 509.1C219.73 509.226 231.332 501.261 233.348 499.908L221.296 365.578L252.963 350.906L243.142 503.128L240.3 502.607ZM304.626 501.47L320.953 508.556C310.947 509.652 300.9 505.469 295.717 502.826H292.482L262.697 370.607L289.934 369.335C289.934 369.335 292.79 399.195 296.07 431.819C299.726 468.182 303.689 495.249 304.626 501.47Z" fill="white"/>
</mask>
<g mask="url(#mask4_0_1)">
<path d="M240.3 502.607C237.824 505.203 233.05 508.961 226.077 509.1C219.73 509.226 231.332 501.261 233.348 499.908L221.296 365.578L252.963 350.906L243.142 503.128L240.3 502.607ZM304.626 501.47L320.953 508.556C310.947 509.652 300.9 505.469 295.717 502.826H292.482L262.697 370.607L289.934 369.335C289.934 369.335 292.79 399.195 296.07 431.819C299.726 468.182 303.689 495.249 304.626 501.47Z" fill="#FFC9A3"/>
<path d="M320.786 373.509H215.854V509.285H320.786V373.509Z" fill="#FFC9A3"/>
</g>
</g>
<g filter="url(#filter7_d_0_1)">
<mask id="mask5_0_1" style="mask-type:alpha" maskUnits="userSpaceOnUse" x="204" y="229" width="96" height="145">
<path d="M232.911 229.277C232.911 229.277 224.471 233.314 217.126 255.222C207.296 284.545 204.416 373.362 204.416 373.362H299.069L274.677 229.914L232.911 229.277Z" fill="white"/>
</mask>
<g mask="url(#mask5_0_1)">
<path d="M232.911 229.277C232.911 229.277 224.471 233.314 217.126 255.222C207.296 284.545 204.416 373.362 204.416 373.362H299.069L274.677 229.914L232.911 229.277Z" fill="#2F2F3D"/>
<path d="M298.904 229.278H204.416V375.996H298.904V229.278Z" fill="#E85AA3"/>
</g>
</g>
<g filter="url(#filter8_d_0_1)">
<path fill-rule="evenodd" clip-rule="evenodd" d="M1182.64 375.828H881.201V304.447H1182.64V375.828Z" fill="#5597EB"/>
<path fill-rule="evenodd" clip-rule="evenodd" d="M1098.07 319.552H880.749C869.438 319.552 859.998 310.917 858.995 299.651L852.199 223.281C851.062 210.508 861.127 199.51 873.953 199.51H1091.28C1102.59 199.51 1112.03 208.146 1113.03 219.411L1119.82 295.781C1120.96 308.554 1110.9 319.552 1098.07 319.552Z" fill="#5597EB"/>
<path fill-rule="evenodd" clip-rule="evenodd" d="M1276.94 410.509H1192.36C1179.85 410.509 1170.02 399.799 1171.1 387.336L1178.1 306.14C1179.05 295.106 1188.29 286.633 1199.36 286.633H1283.95C1296.46 286.633 1306.29 297.343 1305.21 309.806L1298.21 391.003C1297.26 402.037 1288.02 410.509 1276.94 410.509Z" fill="#5597EB"/>
<path fill-rule="evenodd" clip-rule="evenodd" d="M1163.46 319.552H922.024C910.712 319.552 901.273 310.917 900.27 299.651L893.475 223.281C892.338 210.508 902.402 199.51 915.228 199.51H1156.66C1167.97 199.51 1177.41 208.146 1178.41 219.411L1185.21 295.781C1186.35 308.554 1176.28 319.552 1163.46 319.552Z" fill="#76ABEF"/>
<path fill-rule="evenodd" clip-rule="evenodd" d="M1268.01 410.509H899.352V373.128H1268.01V410.509Z" fill="#99C0F3"/>
<path fill-rule="evenodd" clip-rule="evenodd" d="M1217.68 373.128H958.302C945.419 373.128 934.977 362.687 934.977 349.808C934.977 336.928 945.419 326.488 958.302 326.488H1217.68C1230.56 326.488 1241.01 336.928 1241.01 349.808C1241.01 362.687 1230.56 373.128 1217.68 373.128Z" fill="#76ABEF"/>
<path fill-rule="evenodd" clip-rule="evenodd" d="M829.292 440.796H820.445L824.184 410.509H840.509L829.292 440.796Z" fill="#82502D"/>
<path fill-rule="evenodd" clip-rule="evenodd" d="M905.327 440.796H896.481L900.219 410.509H916.543L905.327 440.796Z" fill="#82502D"/>
<path fill-rule="evenodd" clip-rule="evenodd" d="M1266.62 440.796H1275.46L1271.72 410.509H1255.4L1266.62 440.796Z" fill="#5597EB"/>
<path fill-rule="evenodd" clip-rule="evenodd" d="M1190.58 440.796H1199.43L1195.69 410.509H1179.37L1190.58 440.796Z" fill="#82502D"/>
<path fill-rule="evenodd" clip-rule="evenodd" d="M1276.94 410.509H1264.27C1251.76 410.509 1241.93 399.799 1243 387.336L1250.01 306.14C1250.96 295.106 1260.19 286.633 1271.27 286.633H1283.95C1296.46 286.633 1306.29 297.343 1305.21 309.806L1298.21 391.003C1297.26 402.037 1288.02 410.509 1276.94 410.509Z" fill="#99C0F3"/>
<path fill-rule="evenodd" clip-rule="evenodd" d="M911.714 410.509H816.45C805.373 410.509 796.136 402.037 795.185 391.003L788.183 309.806C787.108 297.343 796.936 286.633 809.448 286.633H904.712C915.789 286.633 925.026 295.106 925.977 306.14L932.978 387.336C934.054 399.799 924.226 410.509 911.714 410.509Z" fill="#5597EB"/>
<path fill-rule="evenodd" clip-rule="evenodd" d="M911.714 410.509H899.04C887.962 410.509 878.726 402.037 877.775 391.003L870.773 309.806C869.699 297.343 879.527 286.633 892.038 286.633H904.712C915.789 286.633 925.026 295.106 925.977 306.14L932.978 387.336C934.054 399.799 924.226 410.509 911.714 410.509Z" fill="#99C0F3"/>
<path fill-rule="evenodd" clip-rule="evenodd" d="M830.469 440.803H816.297V360.439H830.469V440.803Z" fill="#5B5B5B"/>
<path fill-rule="evenodd" clip-rule="evenodd" d="M712.423 440.803H698.251V360.439H712.423V440.803Z" fill="#5B5B5B"/>
<path fill-rule="evenodd" clip-rule="evenodd" d="M780.505 440.803H766.332V360.439H780.505V440.803Z" fill="#3F3F3F"/>
<path fill-rule="evenodd" clip-rule="evenodd" d="M662.458 440.803H648.286V360.439H662.458V440.803Z" fill="#3F3F3F"/>
<path fill-rule="evenodd" clip-rule="evenodd" d="M780.285 374.699H648.067V213.342H780.285V374.699Z" fill="#3F3F3F"/>
<path fill-rule="evenodd" clip-rule="evenodd" d="M830.469 374.699H698.251V213.342H830.469V374.699Z" fill="#5B5B5B"/>
<path fill-rule="evenodd" clip-rule="evenodd" d="M818.203 353.809H710.518V234.23H818.203V353.809Z" fill="#7B7B7B"/>
<path fill-rule="evenodd" clip-rule="evenodd" d="M745.803 234.23C745.803 242.733 749.752 249.626 754.623 249.626H774.098C778.969 249.626 782.917 242.733 782.917 234.23H745.803Z" fill="#5B5B5B"/>
<path fill-rule="evenodd" clip-rule="evenodd" d="M705.469 213.634H677.97V144.788H705.469V213.634Z" fill="#9E99F3"/>
<path fill-rule="evenodd" clip-rule="evenodd" d="M687.313 213.634H731.216L714.643 109.792H670.739L687.313 213.634Z" fill="#7E76EF"/>
<path fill-rule="evenodd" clip-rule="evenodd" d="M696.392 213.634H740.296L723.723 109.792H679.819L696.392 213.634Z" fill="#BEBBF7"/>
<path fill-rule="evenodd" clip-rule="evenodd" d="M701.912 197.61H729.661L718.203 125.816H690.454L701.912 197.61Z" fill="#9E99F3"/>
<path fill-rule="evenodd" clip-rule="evenodd" d="M766.561 213.634H747.112V164.945H766.561V213.634Z" fill="#9E99F3"/>
<path fill-rule="evenodd" clip-rule="evenodd" d="M755.321 213.634H786.371L774.65 140.196H743.6L755.321 213.634Z" fill="#7E76EF"/>
<path fill-rule="evenodd" clip-rule="evenodd" d="M761.743 213.634H792.793L781.072 140.196H750.022L761.743 213.634Z" fill="#BEBBF7"/>
<path fill-rule="evenodd" clip-rule="evenodd" d="M766.489 198.592H783.246L776.327 155.236H759.569L766.489 198.592Z" fill="#7E76EF"/>
<path fill-rule="evenodd" clip-rule="evenodd" d="M1010.86 85.8072C1010.86 93.4628 1005.94 99.6686 999.867 99.6686C993.794 99.6686 988.871 93.4628 988.871 85.8072C988.871 78.1517 993.794 71.9459 999.867 71.9459C1005.94 71.9459 1010.86 78.1517 1010.86 85.8072Z" fill="#19141E"/>
<mask id="mask6_0_1" style="mask-type:alpha" maskUnits="userSpaceOnUse" x="946" y="78" width="64" height="63">
<path d="M984.842 140.719L984.381 124.799C984.381 124.799 1003.69 126.339 1007.82 124.189C1007.82 124.189 1012.87 98.1285 1006.85 83.697L1006.72 83.1351L965.981 78.3596L963.697 101.787C962.325 97.7306 950.998 93.131 948.037 98.9397C941.621 111.526 964.563 120.001 964.563 120.001L962.233 140.91" fill="white"/>
</mask>
<g mask="url(#mask6_0_1)">
<path d="M984.842 140.719L984.381 124.799C984.381 124.799 1003.69 126.339 1007.82 124.189C1007.82 124.189 1012.87 98.1285 1006.85 83.697L1006.72 83.1351L965.981 78.3596L963.697 101.787C962.325 97.7306 950.998 93.131 948.037 98.9397C941.621 111.526 964.563 120.001 964.563 120.001L962.233 140.91" fill="#FFC9A3"/>
<path d="M1009.93 78.271H946.905V141.284H1009.93V78.271Z" fill="#FFC9A3"/>
</g>
<path opacity="0.398926" fill-rule="evenodd" clip-rule="evenodd" d="M984.382 124.798L971.363 122.001L984.319 130.771L984.382 124.798Z" fill="black"/>
<path fill-rule="evenodd" clip-rule="evenodd" d="M994.789 101.489L999.287 112.51L993.896 112.579L994.789 101.489Z" fill="#F39E99"/>
<path fill-rule="evenodd" clip-rule="evenodd" d="M989.991 101.914C990.259 103.398 989.275 104.818 987.795 105.087C986.313 105.355 984.895 104.369 984.628 102.886C984.36 101.402 985.343 99.9809 986.824 99.7123C988.306 99.4442 989.723 100.429 989.991 101.914Z" fill="#0D0B6D"/>
<path fill-rule="evenodd" clip-rule="evenodd" d="M1005.11 101.914C1005.38 103.398 1004.39 104.818 1002.91 105.087C1001.43 105.355 1000.01 104.369 999.745 102.886C999.477 101.402 1000.46 99.9809 1001.94 99.7123C1003.42 99.4442 1004.84 100.429 1005.11 101.914Z" fill="#0D0B6D"/>
<path fill-rule="evenodd" clip-rule="evenodd" d="M966.723 105.786C962.86 99.1606 957.27 97.1402 954.762 96.5477C953.761 93.6498 952.998 90.289 952.463 86.7146C951.025 77.1482 957.967 68.4202 963.573 65.9139C969.249 63.3776 979.035 59.8628 993.359 64.6338C1002.99 67.8437 1009.14 60.159 1014.81 63.4411C1024.49 69.051 1015.49 93.6113 990.934 87.3721C973.37 82.9089 972.919 84.0285 972.768 87.2727C972.281 97.7592 970.65 103.928 966.723 105.786Z" fill="#AF733A"/>
<path fill-rule="evenodd" clip-rule="evenodd" d="M987.299 112.989C987.299 112.989 989.03 116.14 992.771 116.066Z" fill="white"/>
<path d="M987.299 112.989C987.299 112.989 989.03 116.14 992.771 116.066" stroke="#252535" stroke-width="4"/>
<path fill-rule="evenodd" clip-rule="evenodd" d="M993.482 102.045C993.482 105.496 990.69 108.292 987.247 108.292C983.804 108.292 981.012 105.496 981.012 102.045C981.012 98.5952 983.804 95.798 987.247 95.798C990.69 95.798 993.482 98.5952 993.482 102.045Z" stroke="#252535" stroke-width="4"/>
<path fill-rule="evenodd" clip-rule="evenodd" d="M1009.18 102.045C1009.18 105.496 1006.39 108.292 1002.95 108.292C999.503 108.292 996.712 105.496 996.712 102.045C996.712 98.5952 999.503 95.798 1002.95 95.798C1006.39 95.798 1009.18 98.5952 1009.18 102.045Z" stroke="#252535" stroke-width="4"/>
<path d="M996.204 102.335H993.508" stroke="#252535" stroke-width="4"/>
<path d="M981.012 102.045H965.61" stroke="#252535" stroke-width="4"/>
<mask id="mask7_0_1" style="mask-type:alpha" maskUnits="userSpaceOnUse" x="903" y="477" width="138" height="38">
<path d="M1001.03 485.48L1000.88 498.537C1000.88 498.537 1030.14 503.147 1040.05 514.326H981.759L984.2 477L1001.03 485.48ZM926.353 484.38L926.201 499.045C926.201 499.045 938.525 500.655 943.542 514.326H903.642L906.556 498.234L915.383 493.316L926.353 484.38Z" fill="white"/>
</mask>
<g mask="url(#mask7_0_1)">
<path d="M1001.03 485.48L1000.88 498.537C1000.88 498.537 1030.14 503.147 1040.05 514.326H981.759L984.2 477L1001.03 485.48ZM926.353 484.38L926.201 499.045C926.201 499.045 938.525 500.655 943.542 514.326H903.642L906.556 498.234L915.383 493.316L926.353 484.38Z" fill="#0D0B6D"/>
<path d="M1039.8 495.657H898.797V515.95H1039.8V495.657Z" fill="#3D586C"/>
</g>
<mask id="mask8_0_1" style="mask-type:alpha" maskUnits="userSpaceOnUse" x="906" y="479" width="96" height="21">
<path d="M984.201 480.421L1001.03 485.48L1000.88 498.536L982.844 497.725L984.201 480.421ZM909.527 479.321L926.353 484.38L926.201 499.045L906.555 498.234L909.527 479.321Z" fill="white"/>
</mask>
<g mask="url(#mask8_0_1)">
<path d="M984.201 480.421L1001.03 485.48L1000.88 498.536L982.844 497.725L984.201 480.421ZM909.527 479.321L926.353 484.38L926.201 499.045L906.555 498.234L909.527 479.321Z" fill="#A17CD9"/>
<path d="M1000.85 475.283H903.642V507.323H1000.85V475.283Z" fill="#E5B492"/>
</g>
<mask id="mask9_0_1" style="mask-type:alpha" maskUnits="userSpaceOnUse" x="904" y="231" width="108" height="263">
<path d="M1003.44 481.199L1003.05 493.317H980.855L981.244 481.162C978.758 480.165 976.981 477.765 976.921 474.929L973.348 293.424L934.746 476.669C934.202 479.246 932.291 481.248 929.864 481.986L928.413 493.317H905.142L907.145 480.807C905.207 479.304 904.084 476.832 904.47 474.192L940.01 231.325L972.126 231.325L972.124 231.232H1011.02L1008.69 474.589C1008.66 477.79 1006.43 480.467 1003.44 481.199Z" fill="white"/>
</mask>
<g mask="url(#mask9_0_1)">
<path d="M1003.44 481.199L1003.05 493.317H980.855L981.244 481.162C978.758 480.165 976.981 477.765 976.921 474.929L973.348 293.424L934.746 476.669C934.202 479.246 932.291 481.248 929.864 481.986L928.413 493.317H905.142L907.145 480.807C905.207 479.304 904.084 476.832 904.47 474.192L940.01 231.325L972.126 231.325L972.124 231.232H1011.02L1008.69 474.589C1008.66 477.79 1006.43 480.467 1003.44 481.199Z" fill="#2F2F3D"/>
<path d="M1011 231.325H903.642V494.59H1011V231.325Z" fill="#376454"/>
</g>
<path opacity="0.197824" fill-rule="evenodd" clip-rule="evenodd" d="M973.151 296.301L979.961 266.092L974.837 357.677L973.151 296.301Z" fill="black"/>
<mask id="mask10_0_1" style="mask-type:alpha" maskUnits="userSpaceOnUse" x="907" y="231" width="46" height="249">
<path d="M948.319 231.554L952.046 232.162L911.395 479.66L907.656 479.036L948.319 231.554Z" fill="white"/>
</mask>
<g mask="url(#mask10_0_1)">
<path d="M948.319 231.554L952.046 232.162L911.395 479.66L907.656 479.036L948.319 231.554Z" fill="#EFEFEF"/>
<path d="M952.267 231.325H906.334V479.638H952.267V231.325Z" fill="#EFEFEF"/>
</g>
<mask id="mask11_0_1" style="mask-type:alpha" maskUnits="userSpaceOnUse" x="895" y="114" width="208" height="146">
<path d="M1064.45 148.075L1064.19 143.468C1064.19 143.468 1064.19 140.261 1064.61 136.8C1065.02 133.338 1067.43 129.245 1064.89 123.135C1062.34 117.03 1068.42 121.245 1069.77 124.149C1070.89 126.57 1070.3 131.661 1071.67 133.524C1072.84 132.892 1073.61 132.07 1073.61 132.07L1086.71 115.177C1087.14 114.609 1087.92 114.439 1088.54 114.774L1089.25 115.156C1089.99 115.559 1090.22 116.504 1089.75 117.194C1087.19 120.927 1079.26 131.873 1079.48 131.985L1079.82 132.404L1095.21 116.276C1095.69 115.74 1096.5 115.644 1097.09 116.053L1098.02 116.69C1098.69 117.152 1098.83 118.076 1098.33 118.713C1095.27 122.641 1083.79 135.112 1084.01 135.234L1084.47 135.674L1098.79 123.098C1099.3 122.535 1100.16 122.471 1100.75 122.944L1101.45 123.512C1102.06 124.006 1102.16 124.903 1101.65 125.508L1088.12 138.153L1088.51 138.764L1100.26 130.562C1100.8 130.084 1101.61 130.084 1102.16 130.557L1102.48 130.849C1103.06 131.358 1103.12 132.234 1102.62 132.823C1100.9 134.846 1095.56 138.233 1091.36 142.411C1088.1 145.655 1086.51 148.728 1081.96 152.37C1080.03 153.915 1078.32 154.722 1076.68 155.577L1064.45 148.075ZM958.855 137.503C958.855 137.503 967.906 137.486 974.439 137.464C980.971 137.442 989.185 140.187 989.185 140.187C989.185 140.187 993.46 149.783 978.612 148.914C963.764 148.044 958.855 137.503 958.855 137.503ZM895.185 210.158C894.857 198.07 909.346 176.335 909.346 176.335L934.709 187.616L924.273 209.831L952.97 249.812L941.156 259.428C941.156 259.428 895.573 224.41 895.185 210.158Z" fill="white"/>
</mask>
<g mask="url(#mask11_0_1)">
<path d="M1064.45 148.075L1064.19 143.468C1064.19 143.468 1064.19 140.261 1064.61 136.8C1065.02 133.338 1067.43 129.245 1064.89 123.135C1062.34 117.03 1068.42 121.245 1069.77 124.149C1070.89 126.57 1070.3 131.661 1071.67 133.524C1072.84 132.892 1073.61 132.07 1073.61 132.07L1086.71 115.177C1087.14 114.609 1087.92 114.439 1088.54 114.774L1089.25 115.156C1089.99 115.559 1090.22 116.504 1089.75 117.194C1087.19 120.927 1079.26 131.873 1079.48 131.985L1079.82 132.404L1095.21 116.276C1095.69 115.74 1096.5 115.644 1097.09 116.053L1098.02 116.69C1098.69 117.152 1098.83 118.076 1098.33 118.713C1095.27 122.641 1083.79 135.112 1084.01 135.234L1084.47 135.674L1098.79 123.098C1099.3 122.535 1100.16 122.471 1100.75 122.944L1101.45 123.512C1102.06 124.006 1102.16 124.903 1101.65 125.508L1088.12 138.153L1088.51 138.764L1100.26 130.562C1100.8 130.084 1101.61 130.084 1102.16 130.557L1102.48 130.849C1103.06 131.358 1103.12 132.234 1102.62 132.823C1100.9 134.846 1095.56 138.233 1091.36 142.411C1088.1 145.655 1086.51 148.728 1081.96 152.37C1080.03 153.915 1078.32 154.722 1076.68 155.577L1064.45 148.075ZM958.855 137.503C958.855 137.503 967.906 137.486 974.439 137.464C980.971 137.442 989.185 140.187 989.185 140.187C989.185 140.187 993.46 149.783 978.612 148.914C963.764 148.044 958.855 137.503 958.855 137.503ZM895.185 210.158C894.857 198.07 909.346 176.335 909.346 176.335L934.709 187.616L924.273 209.831L952.97 249.812L941.156 259.428C941.156 259.428 895.573 224.41 895.185 210.158Z" fill="#FFC9A3"/>
<path d="M1103.4 114.603H926.609V266.795H1103.4V114.603Z" fill="#FFC9A3"/>
</g>
<mask id="mask12_0_1" style="mask-type:alpha" maskUnits="userSpaceOnUse" x="895" y="137" width="191" height="124">
<path d="M949.537 232.385L956.594 241.847L935.339 260.36C935.339 260.36 896.334 231.793 895.13 209.396C894.363 195.13 906.853 174.766 906.853 174.766C906.853 174.766 922.53 149.73 940.653 141.28C944.372 139.546 953.388 138.1 958.854 137.503C960.53 137.32 959.528 137.973 960.103 139.077C960.704 140.23 962.533 141.939 963.799 143.217C966.432 145.875 971.623 147.889 974.411 148.301C976.536 148.615 980.642 149.102 982.618 148.837C984.593 148.572 986.741 147.681 987.315 147.152C987.888 146.622 988.742 145.96 989.185 144.94C989.628 143.919 989.606 144.212 989.606 143.27C989.606 142.329 989.557 142.468 989.465 142.02C989.373 141.572 989.373 141.303 989.318 141.072C989.078 140.047 989.185 140.187 989.185 140.187C999.883 143.415 1005.3 144.61 1009.2 149.307L1038.98 170.193L1059.36 143.622L1085.66 161.263C1085.66 161.263 1062.37 204.604 1045.5 209.396C1031.91 213.255 1018.14 201.252 1013.3 196.437L1019.05 225.613C1019.97 230.651 1015.56 232.557 1011.63 232.379L949.537 232.385Z" fill="white"/>
</mask>
<g mask="url(#mask12_0_1)">
<path d="M949.537 232.385L956.594 241.847L935.339 260.36C935.339 260.36 896.334 231.793 895.13 209.396C894.363 195.13 906.853 174.766 906.853 174.766C906.853 174.766 922.53 149.73 940.653 141.28C944.372 139.546 953.388 138.1 958.854 137.503C960.53 137.32 959.528 137.973 960.103 139.077C960.704 140.23 962.533 141.939 963.799 143.217C966.432 145.875 971.623 147.889 974.411 148.301C976.536 148.615 980.642 149.102 982.618 148.837C984.593 148.572 986.741 147.681 987.315 147.152C987.888 146.622 988.742 145.96 989.185 144.94C989.628 143.919 989.606 144.212 989.606 143.27C989.606 142.329 989.557 142.468 989.465 142.02C989.373 141.572 989.373 141.303 989.318 141.072C989.078 140.047 989.185 140.187 989.185 140.187C999.883 143.415 1005.3 144.61 1009.2 149.307L1038.98 170.193L1059.36 143.622L1085.66 161.263C1085.66 161.263 1062.37 204.604 1045.5 209.396C1031.91 213.255 1018.14 201.252 1013.3 196.437L1019.05 225.613C1019.97 230.651 1015.56 232.557 1011.63 232.379L949.537 232.385Z" fill="#72A065"/>
<path d="M1085.77 137.431H895.096V260.786H1085.77V137.431Z" fill="#72A065"/>
</g>
<path opacity="0.201242" fill-rule="evenodd" clip-rule="evenodd" d="M1013.21 196.454L1009.65 182.397L1019.26 201.608L1013.21 196.454Z" fill="black"/>
<path opacity="0.200591" d="M946.897 228.997L930.299 205.475L950.349 175.093" stroke="black" stroke-width="5"/>
<mask id="mask13_0_1" style="mask-type:alpha" maskUnits="userSpaceOnUse" x="1270" y="88" width="64" height="62">
<path d="M1295.38 149.765L1295.84 134.085C1295.84 134.085 1276.66 135.603 1272.56 133.485C1272.56 133.485 1268.14 110.391 1273.64 93.0526L1314.12 88.3495L1317 111.47C1318.36 107.475 1329 102.897 1331.94 108.618C1338.31 121.014 1315.52 129.361 1315.52 129.361L1317.84 149.954" fill="white"/>
</mask>
<g mask="url(#mask13_0_1)">
<path d="M1295.38 149.765L1295.84 134.085C1295.84 134.085 1276.66 135.603 1272.56 133.485C1272.56 133.485 1268.14 110.391 1273.64 93.0526L1314.12 88.3495L1317 111.47C1318.36 107.475 1329 102.897 1331.94 108.618C1338.31 121.014 1315.52 129.361 1315.52 129.361L1317.84 149.954" fill="#5E93D1"/>
<path d="M1271.11 86.8348H1333.07V149.848H1271.11V86.8348Z" fill="#82502D"/>
</g>
<path opacity="0.399344" fill-rule="evenodd" clip-rule="evenodd" d="M1295.84 134.085L1308.77 131.33L1295.9 139.968L1295.84 134.085Z" fill="black"/>
<path fill-rule="evenodd" clip-rule="evenodd" d="M1285.17 108.462L1280.7 119.317L1286.06 119.384L1285.17 108.462Z" fill="#6B4326"/>
<path fill-rule="evenodd" clip-rule="evenodd" d="M1290.27 111.547C1290 113.009 1290.98 114.408 1292.45 114.672C1293.92 114.936 1295.33 113.966 1295.59 112.504C1295.86 111.043 1294.88 109.643 1293.41 109.379C1291.94 109.115 1290.53 110.085 1290.27 111.547Z" fill="#0D0B6D"/>
<path fill-rule="evenodd" clip-rule="evenodd" d="M1276.21 111.547C1275.94 113.009 1276.92 114.408 1278.39 114.672C1279.86 114.936 1281.27 113.966 1281.54 112.504C1281.8 111.043 1280.83 109.643 1279.36 109.379C1277.89 109.115 1276.48 110.085 1276.21 111.547Z" fill="#0D0B6D"/>
<path fill-rule="evenodd" clip-rule="evenodd" d="M1290.73 122.458C1290.73 122.458 1288.86 125.473 1285.15 125.218Z" fill="white"/>
<path d="M1290.73 122.458C1290.73 122.458 1288.86 125.473 1285.15 125.218" stroke="#252535" stroke-width="4"/>
<path fill-rule="evenodd" clip-rule="evenodd" d="M1324.64 106.528C1326.44 99.8889 1332.94 75.381 1332.18 71.1971C1331.29 66.3484 1327.89 60.396 1310.44 54.1528C1295.65 48.8633 1287.3 52.6935 1284.77 55.9526C1280.93 60.9117 1273.65 93.053 1273.65 93.053C1273.65 93.053 1279.67 97.314 1301.04 96.5791C1301.04 96.5791 1298.09 109.362 1310.21 108.628C1310.21 108.628 1308.91 112.932 1314.78 114.286C1318 109.311 1322.28 107.3 1324.64 106.528Z" fill="#19141E"/>
<mask id="mask14_0_1" style="mask-type:alpha" maskUnits="userSpaceOnUse" x="1201" y="431" width="225" height="85">
<path d="M1248.86 482.294L1245.15 494.264C1245.15 494.264 1216.15 482.365 1201.24 486.88L1251.5 516L1264.58 483.124L1248.86 482.294ZM1385.56 446.779L1401.81 461.69C1401.81 461.69 1399.4 471.611 1398.38 480.969C1396.91 494.515 1397.81 506.743 1397.81 506.743L1426 457.536L1391.2 431.697L1385.56 446.779Z" fill="white"/>
</mask>
<g mask="url(#mask14_0_1)">
<path d="M1248.86 482.294L1245.15 494.264C1245.15 494.264 1216.15 482.365 1201.24 486.88L1251.5 516L1264.58 483.124L1248.86 482.294ZM1385.56 446.779L1401.81 461.69C1401.81 461.69 1399.4 471.611 1398.38 480.969C1396.91 494.515 1397.81 506.743 1397.81 506.743L1426 457.536L1391.2 431.697L1385.56 446.779Z" fill="#0D0B6D"/>
<path d="M1201.14 445.485H1432.41V515.974H1201.14V445.485Z" fill="#924F00"/>
</g>
<mask id="mask15_0_1" style="mask-type:alpha" maskUnits="userSpaceOnUse" x="1245" y="431" width="167" height="69">
<path d="M1263.75 485.716L1248.21 484.316L1245.15 494.264L1258.01 499.631L1263.75 485.716ZM1391.44 431.683L1389.65 450.579L1401.81 461.69L1411.47 446.841L1391.44 431.683Z" fill="white"/>
</mask>
<g mask="url(#mask15_0_1)">
<path d="M1263.75 485.716L1248.21 484.316L1245.15 494.264L1258.01 499.631L1263.75 485.716ZM1391.44 431.683L1389.65 450.579L1401.81 461.69L1411.47 446.841L1391.44 431.683Z" fill="#5B381F"/>
<path d="M1229.45 436.976H1413.72V499.455H1229.45V436.976Z" fill="#5B381F"/>
</g>
<mask id="mask16_0_1" style="mask-type:alpha" maskUnits="userSpaceOnUse" x="1234" y="240" width="178" height="256">
<path d="M1277.66 293.798L1234.3 487.664L1246.24 490.712H1246.25L1260.15 494.264L1260.22 494.28L1265.03 495.508C1265.03 495.508 1287.13 425.82 1306.57 363.651C1311.3 371.356 1316.63 378.971 1322.63 386.378C1365.25 439.002 1391.32 461.496 1391.32 461.496L1395.2 455.652L1395.21 455.636L1404.53 441.592L1411.27 431.435C1411.27 431.435 1352.92 376.355 1326.66 298.87C1331.28 283.785 1334.47 273.016 1335.3 269.57C1340 249.921 1340.1 240.918 1340.1 240.2H1289.65L1269.41 240.2C1270.15 253.005 1272.19 272.048 1277.66 293.797L1277.66 293.798Z" fill="white"/>
</mask>
<g mask="url(#mask16_0_1)">
<path d="M1277.66 293.798L1234.3 487.664L1246.24 490.712H1246.25L1260.15 494.264L1260.22 494.28L1265.03 495.508C1265.03 495.508 1287.13 425.82 1306.57 363.651C1311.3 371.356 1316.63 378.971 1322.63 386.378C1365.25 439.002 1391.32 461.496 1391.32 461.496L1395.2 455.652L1395.21 455.636L1404.53 441.592L1411.27 431.435C1411.27 431.435 1352.92 376.355 1326.66 298.87C1331.28 283.785 1334.47 273.016 1335.3 269.57C1340 249.921 1340.1 240.918 1340.1 240.2H1289.65L1269.41 240.2C1270.15 253.005 1272.19 272.048 1277.66 293.797L1277.66 293.798Z" fill="#101016"/>
<path d="M1234.26 240.222H1416.39V495.477H1234.26V240.222Z" fill="#19141E"/>
</g>
<path fill-rule="evenodd" clip-rule="evenodd" d="M1234.3 487.664L1246.24 490.712H1246.25L1260.15 494.264L1260.22 494.28L1265.03 495.508C1265.03 495.508 1287.13 425.82 1306.57 363.651C1314.16 339.381 1321.35 316.259 1326.66 298.87C1331.28 283.785 1334.47 273.016 1335.3 269.57C1340 249.921 1340.1 240.918 1340.1 240.2H1289.65L1277.66 293.797L1234.3 487.664Z" fill="white" fill-opacity="0.1"/>
<mask id="mask17_0_1" style="mask-type:alpha" maskUnits="userSpaceOnUse" x="1237" y="251" width="138" height="50">
<path d="M1261.38 255.517C1260.01 252.405 1252.81 251.53 1252.81 251.53C1252.81 251.53 1241.33 264.305 1240.31 266.255C1239.28 268.205 1237.38 277.863 1237.47 279.771C1237.56 281.679 1243.48 290.253 1243.48 290.253C1247.15 289.383 1244.75 284.955 1244.75 284.955C1244.75 284.955 1248.05 287.644 1249.41 287.599C1262.3 287.175 1261.61 280.87 1261.3 280.081C1260.62 278.307 1257.18 280.335 1257.18 280.335C1257.18 280.335 1265.29 264.42 1261.38 255.517ZM1354.88 258.084L1352.54 262.517C1352.54 262.517 1351.35 264.559 1350.11 268.122C1348.86 271.686 1349.38 273.866 1346.68 279.463C1343.61 285.817 1349.09 283.197 1351.06 280.423C1352.59 278.259 1352.42 275.333 1354.41 274.022C1355.07 275.084 1356.59 276.604 1357.44 285.771C1357.59 287.415 1356.85 292.748 1356.85 292.748C1356.83 294.346 1356.63 297.678 1358.45 298.187C1358.9 298.313 1359.49 297.815 1359.49 297.815C1359.49 297.815 1359.31 299.9 1361.17 300.315C1361.9 300.478 1363.35 295.977 1363.35 295.977C1363.35 295.977 1363.57 298.262 1364.96 298.517C1365.35 298.589 1369.99 285.544 1369.99 285.544L1369.71 288.49L1369.1 291.508C1369.1 291.508 1369.15 293.132 1370.45 293.42C1370.97 293.533 1371.96 290.824 1372.89 287.637C1374.34 282.678 1374.31 278.951 1373.89 275.245C1373.37 270.766 1373.6 269.262 1371.61 263.77C1370.79 261.504 1368.99 258.079 1368.04 256.62L1354.88 258.084Z" fill="white"/>
</mask>
<g mask="url(#mask17_0_1)">
<path d="M1261.38 255.517C1260.01 252.405 1252.81 251.53 1252.81 251.53C1252.81 251.53 1241.33 264.305 1240.31 266.255C1239.28 268.205 1237.38 277.863 1237.47 279.771C1237.56 281.679 1243.48 290.253 1243.48 290.253C1247.15 289.383 1244.75 284.955 1244.75 284.955C1244.75 284.955 1248.05 287.644 1249.41 287.599C1262.3 287.175 1261.61 280.87 1261.3 280.081C1260.62 278.307 1257.18 280.335 1257.18 280.335C1257.18 280.335 1265.29 264.42 1261.38 255.517ZM1354.88 258.084L1352.54 262.517C1352.54 262.517 1351.35 264.559 1350.11 268.122C1348.86 271.686 1349.38 273.866 1346.68 279.463C1343.61 285.817 1349.09 283.197 1351.06 280.423C1352.59 278.259 1352.42 275.333 1354.41 274.022C1355.07 275.084 1356.59 276.604 1357.44 285.771C1357.59 287.415 1356.85 292.748 1356.85 292.748C1356.83 294.346 1356.63 297.678 1358.45 298.187C1358.9 298.313 1359.49 297.815 1359.49 297.815C1359.49 297.815 1359.31 299.9 1361.17 300.315C1361.9 300.478 1363.35 295.977 1363.35 295.977C1363.35 295.977 1363.57 298.262 1364.96 298.517C1365.35 298.589 1369.99 285.544 1369.99 285.544L1369.71 288.49L1369.1 291.508C1369.1 291.508 1369.15 293.132 1370.45 293.42C1370.97 293.533 1371.96 290.824 1372.89 287.637C1374.34 282.678 1374.31 278.951 1373.89 275.245C1373.37 270.766 1373.6 269.262 1371.61 263.77C1370.79 261.504 1368.99 258.079 1368.04 256.62L1354.88 258.084Z" fill="#FFC9A3"/>
<path d="M1237.46 259.054H1377.4V300.707H1237.46V259.054Z" fill="#82502D"/>
</g>
<path opacity="0.147531" d="M1254.55 263.032C1254.55 263.032 1252.74 269.632 1246.54 271.689C1244.37 272.409 1244.91 280.898 1239.59 279.883" stroke="black" stroke-width="3"/>
<mask id="mask18_0_1" style="mask-type:alpha" maskUnits="userSpaceOnUse" x="1241" y="140" width="134" height="129">
<path d="M1323.24 150.647L1320.19 140.139L1304.91 141.084L1299.62 149.721L1294.32 141.736L1290.52 141.97L1289.24 151.978C1288.55 152.258 1287.9 152.538 1287.27 152.818C1286.4 153.205 1285.59 153.588 1284.83 153.975L1284.79 153.996C1273.98 159.448 1272.43 165.017 1269.02 172.02C1264.65 180.98 1260.13 208.507 1260.13 208.507L1241.17 256.02L1264.41 268.878L1270.13 257.878L1269.99 243.194H1303.91L1307.67 243.189H1341.02L1341.51 225.107L1347.56 261.376L1374.13 262.624C1374.13 262.624 1374.65 224.852 1369.6 203.001C1366.38 189.082 1350.64 163.217 1335.74 154.325C1333.36 152.903 1330.2 151.904 1326.66 151.215C1325.56 150.995 1324.41 150.807 1323.24 150.647V150.647ZM1303.27 246.949C1303.27 248.152 1304.25 249.127 1305.46 249.127C1306.67 249.127 1307.66 248.152 1307.66 246.949C1307.66 245.747 1306.67 244.771 1305.46 244.771C1304.25 244.771 1303.27 245.747 1303.27 246.949ZM1279.17 247.071C1279.17 248.274 1280.15 249.248 1281.36 249.248C1282.57 249.248 1283.55 248.274 1283.55 247.071C1283.55 245.867 1282.57 244.893 1281.36 244.893C1280.15 244.893 1279.17 245.867 1279.17 247.071Z" fill="white"/>
</mask>
<g mask="url(#mask18_0_1)">
<path d="M1323.24 150.647L1320.19 140.139L1304.91 141.084L1299.62 149.721L1294.32 141.736L1290.52 141.97L1289.24 151.978C1288.55 152.258 1287.9 152.538 1287.27 152.818C1286.4 153.205 1285.59 153.588 1284.83 153.975L1284.79 153.996C1273.98 159.448 1272.43 165.017 1269.02 172.02C1264.65 180.98 1260.13 208.507 1260.13 208.507L1241.17 256.02L1264.41 268.878L1270.13 257.878L1269.99 243.194H1303.91L1307.67 243.189H1341.02L1341.51 225.107L1347.56 261.376L1374.13 262.624C1374.13 262.624 1374.65 224.852 1369.6 203.001C1366.38 189.082 1350.64 163.217 1335.74 154.325C1333.36 152.903 1330.2 151.904 1326.66 151.215C1325.56 150.995 1324.41 150.807 1323.24 150.647V150.647ZM1303.27 246.949C1303.27 248.152 1304.25 249.127 1305.46 249.127C1306.67 249.127 1307.66 248.152 1307.66 246.949C1307.66 245.747 1306.67 244.771 1305.46 244.771C1304.25 244.771 1303.27 245.747 1303.27 246.949ZM1279.17 247.071C1279.17 248.274 1280.15 249.248 1281.36 249.248C1282.57 249.248 1283.55 248.274 1283.55 247.071C1283.55 245.867 1282.57 244.893 1281.36 244.893C1280.15 244.893 1279.17 245.867 1279.17 247.071Z" fill="white"/>
<path d="M1241.2 140.138H1379V269.368H1241.2V140.138Z" fill="white"/>
</g>
<path opacity="0.197266" d="M1341.4 229.193L1336.51 203.818L1324.42 183.454" stroke="black" stroke-width="5"/>
<path opacity="0.195754" d="M1271.05 243.298L1268.74 206.324" stroke="black" stroke-width="5"/>
<mask id="mask19_0_1" style="mask-type:alpha" maskUnits="userSpaceOnUse" x="1289" y="143" width="24" height="14">
<path d="M1312.44 156.385L1308.3 143.219L1301.33 151.475L1312.44 156.385ZM1298.46 151.346L1291.8 144.275L1289.55 156.547L1298.46 151.346Z" fill="white"/>
</mask>
<g mask="url(#mask19_0_1)">
<path d="M1312.44 156.385L1308.3 143.219L1301.33 151.475L1312.44 156.385ZM1298.46 151.346L1291.8 144.275L1289.55 156.547L1298.46 151.346Z" fill="#EA847A"/>
<path d="M1289.27 143.324H1313.3V156.674H1289.27V143.324Z" fill="#B61708"/>
</g>
<path opacity="0.198451" fill-rule="evenodd" clip-rule="evenodd" d="M1350.28 257.127C1350.28 258.3 1351.23 259.251 1352.41 259.251C1353.59 259.251 1354.55 258.3 1354.55 257.127C1354.55 255.955 1353.59 255.004 1352.41 255.004C1351.23 255.004 1350.28 255.955 1350.28 257.127Z" fill="black"/>
<path opacity="0.199033" fill-rule="evenodd" clip-rule="evenodd" d="M1244.93 254.35C1244.93 255.523 1245.89 256.474 1247.07 256.474C1248.25 256.474 1249.21 255.523 1249.21 254.35C1249.21 253.177 1248.25 252.227 1247.07 252.227C1245.89 252.227 1244.93 253.177 1244.93 254.35Z" fill="black"/>
<path opacity="0.202567" d="M1374.14 251.165L1345.77 249.913" stroke="black" stroke-width="4"/>
<path opacity="0.198684" d="M1269.99 258.379L1245.56 245.026" stroke="black" stroke-width="4"/>
<path opacity="0.197661" fill-rule="evenodd" clip-rule="evenodd" d="M1303.91 243.194L1307.67 243.189C1307.89 197.921 1315.35 167.719 1326.66 151.215V151.209L1322.85 150.328C1322.79 150.408 1322.73 150.487 1322.68 150.572C1311.12 166.711 1303.47 196.758 1303.91 243.194Z" fill="black"/>
<path opacity="0.196777" fill-rule="evenodd" clip-rule="evenodd" d="M1278.56 243.194H1282.39C1277.01 199.652 1280.41 169.524 1289.25 151.974C1289.26 151.931 1289.28 151.894 1289.3 151.852L1287.27 152.818L1284.83 153.975L1284.79 153.996C1275.56 171.106 1272.44 198.701 1278.56 243.194Z" fill="black"/>
<path fill-rule="evenodd" clip-rule="evenodd" d="M1110.33 102.823H1214.52V14.4769H1110.33V102.823Z" fill="#FFE381"/>
<path fill-rule="evenodd" clip-rule="evenodd" d="M1110.33 102.823H1214.52V14.4769H1110.33V102.823Z" stroke="#FFE381" stroke-width="5"/>
<path fill-rule="evenodd" clip-rule="evenodd" d="M1104.2 102.942H1208.39V14.5955H1104.2V102.942Z" fill="#FFF3C7"/>
<path fill-rule="evenodd" clip-rule="evenodd" d="M1104.2 102.942H1208.39V14.5955H1104.2V102.942Z" stroke="#FFE381" stroke-width="5"/>
<path fill-rule="evenodd" clip-rule="evenodd" d="M1121.95 84.6898H1189.16V32.6102H1121.95V84.6898Z" fill="#FFE381"/>
</g>
<defs>
<filter id="filter0_d_0_1" x="116.868" y="183.194" width="309.14" height="271.374" filterUnits="userSpaceOnUse" color-interpolation-filters="sRGB">
<feFlood flood-opacity="0" result="BackgroundImageFix"/>
<feColorMatrix in="SourceAlpha" type="matrix" values="0 0 0 0 0 0 0 0 0 0 0 0 0 0 0 0 0 0 127 0" result="hardAlpha"/>
<feOffset dy="4"/>
<feGaussianBlur stdDeviation="2"/>
<feComposite in2="hardAlpha" operator="out"/>
<feColorMatrix type="matrix" values="0 0 0 0 0 0 0 0 0 0 0 0 0 0 0 0 0 0 0.25 0"/>
<feBlend mode="normal" in2="BackgroundImageFix" result="effect1_dropShadow_0_1"/>
<feBlend mode="normal" in="SourceGraphic" in2="effect1_dropShadow_0_1" result="shape"/>
</filter>
<filter id="filter1_d_0_1" x="0" y="213.362" width="137.124" height="241.394" filterUnits="userSpaceOnUse" color-interpolation-filters="sRGB">
<feFlood flood-opacity="0" result="BackgroundImageFix"/>
<feColorMatrix in="SourceAlpha" type="matrix" values="0 0 0 0 0 0 0 0 0 0 0 0 0 0 0 0 0 0 127 0" result="hardAlpha"/>
<feOffset dy="4"/>
<feGaussianBlur stdDeviation="2"/>
<feComposite in2="hardAlpha" operator="out"/>
<feColorMatrix type="matrix" values="0 0 0 0 0 0 0 0 0 0 0 0 0 0 0 0 0 0 0.25 0"/>
<feBlend mode="normal" in2="BackgroundImageFix" result="effect1_dropShadow_0_1"/>
<feBlend mode="normal" in="SourceGraphic" in2="effect1_dropShadow_0_1" result="shape"/>
</filter>
<filter id="filter2_d_0_1" x="430.67" y="0" width="177.911" height="455.403" filterUnits="userSpaceOnUse" color-interpolation-filters="sRGB">
<feFlood flood-opacity="0" result="BackgroundImageFix"/>
<feColorMatrix in="SourceAlpha" type="matrix" values="0 0 0 0 0 0 0 0 0 0 0 0 0 0 0 0 0 0 127 0" result="hardAlpha"/>
<feOffset dy="4"/>
<feGaussianBlur stdDeviation="2"/>
<feComposite in2="hardAlpha" operator="out"/>
<feColorMatrix type="matrix" values="0 0 0 0 0 0 0 0 0 0 0 0 0 0 0 0 0 0 0.25 0"/>
<feBlend mode="normal" in2="BackgroundImageFix" result="effect1_dropShadow_0_1"/>
<feBlend mode="normal" in="SourceGraphic" in2="effect1_dropShadow_0_1" result="shape"/>
</filter>
<filter id="filter3_d_0_1" x="20.9894" y="5.96826" width="253.071" height="42.6262" filterUnits="userSpaceOnUse" color-interpolation-filters="sRGB">
<feFlood flood-opacity="0" result="BackgroundImageFix"/>
<feColorMatrix in="SourceAlpha" type="matrix" values="0 0 0 0 0 0 0 0 0 0 0 0 0 0 0 0 0 0 127 0" result="hardAlpha"/>
<feOffset dy="4"/>
<feGaussianBlur stdDeviation="2"/>
<feComposite in2="hardAlpha" operator="out"/>
<feColorMatrix type="matrix" values="0 0 0 0 0 0 0 0 0 0 0 0 0 0 0 0 0 0 0.25 0"/>
<feBlend mode="normal" in2="BackgroundImageFix" result="effect1_dropShadow_0_1"/>
<feBlend mode="normal" in="SourceGraphic" in2="effect1_dropShadow_0_1" result="shape"/>
</filter>
<filter id="filter4_d_0_1" x="172.567" y="80.073" width="119.745" height="119.053" filterUnits="userSpaceOnUse" color-interpolation-filters="sRGB">
<feFlood flood-opacity="0" result="BackgroundImageFix"/>
<feColorMatrix in="SourceAlpha" type="matrix" values="0 0 0 0 0 0 0 0 0 0 0 0 0 0 0 0 0 0 127 0" result="hardAlpha"/>
<feOffset dy="4"/>
<feGaussianBlur stdDeviation="2"/>
<feComposite in2="hardAlpha" operator="out"/>
<feColorMatrix type="matrix" values="0 0 0 0 0 0 0 0 0 0 0 0 0 0 0 0 0 0 0.25 0"/>
<feBlend mode="normal" in2="BackgroundImageFix" result="effect1_dropShadow_0_1"/>
<feBlend mode="normal" in="SourceGraphic" in2="effect1_dropShadow_0_1" result="shape"/>
</filter>
<filter id="filter5_d_0_1" x="181.518" y="150.199" width="135.925" height="160.209" filterUnits="userSpaceOnUse" color-interpolation-filters="sRGB">
<feFlood flood-opacity="0" result="BackgroundImageFix"/>
<feColorMatrix in="SourceAlpha" type="matrix" values="0 0 0 0 0 0 0 0 0 0 0 0 0 0 0 0 0 0 127 0" result="hardAlpha"/>
<feOffset dy="4"/>
<feGaussianBlur stdDeviation="2"/>
<feComposite in2="hardAlpha" operator="out"/>
<feColorMatrix type="matrix" values="0 0 0 0 0 0 0 0 0 0 0 0 0 0 0 0 0 0 0.25 0"/>
<feBlend mode="normal" in2="BackgroundImageFix" result="effect1_dropShadow_0_1"/>
<feBlend mode="normal" in="SourceGraphic" in2="effect1_dropShadow_0_1" result="shape"/>
</filter>
<filter id="filter6_d_0_1" x="217.296" y="350.906" width="107.657" height="166.195" filterUnits="userSpaceOnUse" color-interpolation-filters="sRGB">
<feFlood flood-opacity="0" result="BackgroundImageFix"/>
<feColorMatrix in="SourceAlpha" type="matrix" values="0 0 0 0 0 0 0 0 0 0 0 0 0 0 0 0 0 0 127 0" result="hardAlpha"/>
<feOffset dy="4"/>
<feGaussianBlur stdDeviation="2"/>
<feComposite in2="hardAlpha" operator="out"/>
<feColorMatrix type="matrix" values="0 0 0 0 0 0 0 0 0 0 0 0 0 0 0 0 0 0 0.25 0"/>
<feBlend mode="normal" in2="BackgroundImageFix" result="effect1_dropShadow_0_1"/>
<feBlend mode="normal" in="SourceGraphic" in2="effect1_dropShadow_0_1" result="shape"/>
</filter>
<filter id="filter7_d_0_1" x="200.416" y="229.277" width="102.654" height="152.084" filterUnits="userSpaceOnUse" color-interpolation-filters="sRGB">
<feFlood flood-opacity="0" result="BackgroundImageFix"/>
<feColorMatrix in="SourceAlpha" type="matrix" values="0 0 0 0 0 0 0 0 0 0 0 0 0 0 0 0 0 0 127 0" result="hardAlpha"/>
<feOffset dy="4"/>
<feGaussianBlur stdDeviation="2"/>
<feComposite in2="hardAlpha" operator="out"/>
<feColorMatrix type="matrix" values="0 0 0 0 0 0 0 0 0 0 0 0 0 0 0 0 0 0 0.25 0"/>
<feBlend mode="normal" in2="BackgroundImageFix" result="effect1_dropShadow_0_1"/>
<feBlend mode="normal" in="SourceGraphic" in2="effect1_dropShadow_0_1" result="shape"/>
</filter>
<filter id="filter8_d_0_1" x="644.067" y="11.9769" width="785.933" height="512.023" filterUnits="userSpaceOnUse" color-interpolation-filters="sRGB">
<feFlood flood-opacity="0" result="BackgroundImageFix"/>
<feColorMatrix in="SourceAlpha" type="matrix" values="0 0 0 0 0 0 0 0 0 0 0 0 0 0 0 0 0 0 127 0" result="hardAlpha"/>
<feOffset dy="4"/>
<feGaussianBlur stdDeviation="2"/>
<feComposite in2="hardAlpha" operator="out"/>
<feColorMatrix type="matrix" values="0 0 0 0 0 0 0 0 0 0 0 0 0 0 0 0 0 0 0.25 0"/>
<feBlend mode="normal" in2="BackgroundImageFix" result="effect1_dropShadow_0_1"/>
<feBlend mode="normal" in="SourceGraphic" in2="effect1_dropShadow_0_1" result="shape"/>
</filter>
</defs>
</svg>
