<svg width="649" height="512" viewBox="0 0 649 512" fill="none" xmlns="http://www.w3.org/2000/svg">
<g filter="url(#filter0_d_0_1)">
<path fill-rule="evenodd" clip-rule="evenodd" d="M356.342 90.1822C356.313 109.522 371.969 125.224 391.308 125.253C410.648 125.281 426.35 109.627 426.379 90.2865C426.408 70.9465 410.753 55.245 391.413 55.2163C372.073 55.1872 356.371 70.8422 356.342 90.1822Z" fill="#19141E"/>
<path fill-rule="evenodd" clip-rule="evenodd" d="M433.423 50.9532C433.408 61.3365 424.977 69.7417 414.594 69.7257C404.211 69.7107 395.806 61.2806 395.821 50.8968C395.837 40.5136 404.267 32.1088 414.65 32.1243C425.034 32.1398 433.439 40.5699 433.423 50.9532Z" fill="#19141E"/>
<path fill-rule="evenodd" clip-rule="evenodd" d="M426.376 92.7354L426.287 151.878L356.251 151.774L356.339 92.6311L426.376 92.7354Z" fill="#19141E"/>
<path fill-rule="evenodd" clip-rule="evenodd" d="M372.781 117.659C375.881 119.721 381.518 119.975 386.318 119.698L387.422 133.338C387.422 133.338 395.215 129.938 399.677 127.42C400.447 126.988 401.114 126.579 401.626 126.217C401.542 125.414 401.349 123.545 401.105 121.21V121.201C400.663 116.997 400.062 111.28 399.668 107.513C402.298 103.525 409.461 102.628 409.471 97.0193C409.471 95.3376 408.489 92.43 404.863 92.4254C399.996 92.416 400.687 98.2499 400.687 98.2499C395.186 100.392 387.586 81.6311 384.341 77.4409C382.565 75.1486 370.902 80.5366 370.902 80.5366L363.165 89.1936C363.015 90.2552 363.56 111.524 372.781 117.659Z" fill="#FFC9A3"/>
<path fill-rule="evenodd" clip-rule="evenodd" d="M373.114 100L369.638 108.427L373.67 108.347L373.114 100Z" fill="#F39E99"/>
<path fill-rule="evenodd" clip-rule="evenodd" d="M376.815 100.366C376.902 102.049 377.891 103.361 379.026 103.295C380.161 103.23 381.011 101.813 380.924 100.129C380.837 98.4456 379.848 97.1336 378.713 97.1994C377.578 97.2647 376.728 98.6823 376.815 100.366Z" fill="#0D0B6D"/>
<path fill-rule="evenodd" clip-rule="evenodd" d="M366.158 100.097C366.245 101.78 367.235 103.092 368.369 103.027C369.504 102.962 370.354 101.543 370.268 99.8605C370.181 98.177 369.191 96.865 368.056 96.9303C366.921 96.9956 366.072 98.4137 366.158 100.097Z" fill="#0D0B6D"/>
<path fill-rule="evenodd" clip-rule="evenodd" d="M373.541 80.4416C373.538 82.7701 373.146 85.0078 372.43 87.0821C372.335 87.3405 372.24 87.6087 372.13 87.8666C371.44 89.6041 370.521 91.2143 369.412 92.6507C366.422 96.518 362.044 99.1343 357.086 99.6595C356.832 99.6853 356.582 99.706 356.328 99.7158L356.339 92.6315H356.344C356.339 92.4097 356.339 92.1941 356.34 91.9729C356.353 83.229 359.23 75.1947 364.037 68.8651C364.931 67.6866 365.894 66.5715 366.917 65.5193C369.236 67.5508 371.07 70.1766 372.217 73.181C373.075 75.4211 373.545 77.8707 373.541 80.4416Z" fill="#19141E"/>
<path fill-rule="evenodd" clip-rule="evenodd" d="M400.715 80.0317C400.707 85.092 396.121 89.3505 389.863 90.6493C389.368 90.755 388.864 90.8396 388.346 90.903C387.516 91.0138 386.661 91.066 385.792 91.0646C377.558 91.0524 370.892 86.0939 370.901 79.9875C370.902 79.4004 370.964 78.8235 371.086 78.2632C372.211 72.975 378.382 68.9377 385.824 68.949C393.979 68.9612 400.594 73.8285 400.71 79.8555C400.715 79.9142 400.715 79.973 400.715 80.0317Z" fill="#19141E"/>
<path d="M374.66 112.383C374.66 112.383 377.288 113.231 379.92 110.303" stroke="#1C295E" stroke-width="3"/>
<path opacity="0.401344" fill-rule="evenodd" clip-rule="evenodd" d="M386.32 119.696C386.32 119.696 392.394 119.876 394.983 118.461L386.643 123.698L386.32 119.696Z" fill="black"/>
<path fill-rule="evenodd" clip-rule="evenodd" d="M378.724 125.169C378.724 125.169 380.312 125.098 382.755 125.252C386.175 125.468 386.786 125.474 386.786 125.474L386.384 120.493L377.149 121.71L378.724 125.169Z" fill="#19141E"/>
<path fill-rule="evenodd" clip-rule="evenodd" d="M331.489 165.74C331.83 162.402 331.963 158.408 330.902 156.978C328.956 154.353 319.333 146.417 319.333 146.417L318.82 153.039L316.542 145.265C316.542 145.265 314.019 146.013 311.577 147.291C309.398 148.43 307.331 150.073 306.428 150.714C305.135 151.634 308.896 165.785 311.577 168.332C313.418 170.08 318.847 171.435 322.068 172.113C328.22 182.049 344.618 206.875 353.677 204.827C363.088 202.699 371.819 169.802 371.819 169.802L355.946 162.069L349.034 183.372L331.489 165.74ZM439.353 237.834L435.49 247.715C435.49 247.715 434.903 250.259 434.575 253.265C434.247 256.272 434.121 258.1 432.131 262.611C430.743 265.755 435.233 264.816 436.506 263.06C437.819 261.249 438.483 253.825 440.644 255.294C442.805 256.763 443.456 264.235 442.973 271.29C442.897 272.398 443.667 273.303 444.217 273.621C445.109 274.138 446.411 269.772 446.411 269.772C446.411 269.772 446.88 271.306 448.301 270.666C448.804 270.439 450.303 267.468 450.303 267.468C450.303 267.468 451.463 266.004 452.074 264.369C453.151 261.484 454.031 256.127 453.823 254.554C453.334 250.844 452.231 244.584 450.782 241.115C451.638 232.203 454.917 196.423 453.108 189.626C451.038 181.849 446.981 171.31 446.981 171.31L431.414 180.465L438.088 194.712L439.353 237.834ZM385.552 126.751C385.552 126.751 381.395 129.689 378.29 134.942C374.04 142.129 376.262 148.329 382.8 148.339C389.799 148.351 397.832 145.969 401.218 135.367C402.931 130.005 404.549 125.834 404.549 125.834L385.552 126.751Z" fill="#FFC9A3"/>
<path fill-rule="evenodd" clip-rule="evenodd" d="M311.279 147.491C312.712 146.669 314.077 146.054 314.745 146.21C315.915 146.483 313.774 149.551 312.212 151.571L312.23 151.648C314.751 152.662 318.054 154.166 318.585 155.267C318.956 156.035 317.507 156.287 315.713 156.321C317.364 157.113 318.805 157.969 319.14 158.664C319.57 159.554 317.559 159.75 315.397 159.719C317.306 160.59 319.096 161.58 319.475 162.365C319.957 163.367 317.353 163.49 314.918 163.399L315.544 166.134C315.736 166.973 316.5 167.555 317.36 167.517L326.703 167.109C327.814 167.06 328.61 166.016 328.362 164.931L321.742 135.998C321.55 135.159 320.787 134.577 319.927 134.615L310.584 135.023C309.472 135.072 308.677 136.116 308.925 137.201L311.279 147.491Z" fill="#020101"/>
<path fill-rule="evenodd" clip-rule="evenodd" d="M309.374 148.664C311.357 147.372 313.778 145.985 314.745 146.21C315.925 146.485 313.736 149.605 312.171 151.624C314.699 152.639 318.05 154.157 318.585 155.267C318.956 156.036 317.507 156.287 315.713 156.321C317.364 157.113 318.805 157.969 319.14 158.664C319.57 159.554 317.559 159.75 315.397 159.719C317.306 160.59 319.096 161.58 319.475 162.366C320.114 163.692 315.341 163.478 312.715 163.265L313.393 166.228C313.584 167.067 314.348 167.649 315.208 167.611L324.551 167.203C325.663 167.154 326.458 166.11 326.21 165.025L319.59 136.092C319.398 135.253 318.635 134.671 317.776 134.708L308.432 135.117C307.32 135.166 306.525 136.21 306.773 137.295L309.374 148.664Z" fill="#5E93D1"/>
<path fill-rule="evenodd" clip-rule="evenodd" d="M317.181 138.542C317.399 139.49 317.958 140.163 318.43 140.045C318.902 139.927 319.108 139.062 318.891 138.114C318.673 137.166 318.114 136.493 317.642 136.611C317.17 136.729 316.963 137.594 317.181 138.542Z" fill="#020101"/>
<path fill-rule="evenodd" clip-rule="evenodd" d="M318.274 143.448C318.491 144.397 319.05 145.07 319.523 144.952C319.995 144.834 320.201 143.969 319.984 143.021C319.766 142.072 319.207 141.399 318.735 141.518C318.262 141.636 318.056 142.5 318.274 143.448Z" fill="#020101"/>
<path fill-rule="evenodd" clip-rule="evenodd" d="M398.288 126.136L404.549 125.834C404.549 125.834 402.931 130.005 401.218 135.367C397.832 145.968 389.799 148.351 382.8 148.339C376.262 148.329 374.04 142.128 378.29 134.942C381.025 130.315 384.576 127.484 385.383 126.875C377.128 127.433 371.987 128.47 367.227 132.935C358.163 141.436 350.824 157.108 347.806 172.591L364.369 179.982L370.268 202.778L413.616 202.117C413.616 202.117 413.236 197.942 414.171 191.908C415.389 184.017 419.784 178.128 419.784 178.128L424.144 184.755L451.258 168.77C442.382 152.583 430 135.892 421.744 130.581C415.912 126.828 410.572 125.885 405.354 125.834C402.982 125.811 400.599 125.972 398.288 126.136Z" fill="#5E93D1"/>
<path opacity="0.202962" d="M370.075 203.174C368.419 182.145 357.475 177.183 365.733 153.6" stroke="black" stroke-width="3"/>
<path opacity="0.202055" d="M385.552 126.751C385.552 126.751 381.395 129.689 378.29 134.942C374.04 142.129 376.262 148.329 382.8 148.339C389.799 148.351 397.832 145.969 401.218 135.367C402.931 130.005 404.549 125.834 404.549 125.834" stroke="black" stroke-width="3"/>
<path opacity="0.202962" d="M408.651 163.406L418.709 178.645" stroke="black" stroke-width="3"/>
<path fill-rule="evenodd" clip-rule="evenodd" d="M323.379 454.99L320.43 466.189C320.43 466.189 296.995 456.112 284.354 460.569L326.242 486.813L336.805 455.492L323.379 454.99ZM465.465 421.335L478.554 434.425C478.554 434.425 477.365 441.553 477.307 449.81C477.222 461.761 478.872 473.463 478.872 473.463L497.518 430.778L470.012 408.095L465.465 421.335Z" fill="#6D0B5D"/>
<path fill-rule="evenodd" clip-rule="evenodd" d="M339.362 448.873L325.618 446.311L320.429 466.19L331.502 470.961L339.362 448.873ZM470.203 408.083L468.765 424.671L478.554 434.426L486.326 421.388L470.203 408.083Z" fill="#FFC9A3"/>
<path fill-rule="evenodd" clip-rule="evenodd" d="M394.749 370.924C416.086 413.389 452.816 449.39 452.816 449.39L485.701 400.624C485.701 400.624 441.89 362.158 421.214 277.218C424.69 263.262 427.16 251.767 428.027 244.399C430.872 220.273 416.522 204.028 412.671 200.152H410.905L367.639 200.152C366.714 203.592 363.048 222.876 364.316 251.283C360.497 263.976 356.025 279.296 350.844 297.688C321.353 402.375 307.676 448.542 307.676 448.542L363.741 468.54C363.741 468.54 379.835 420.349 394.749 370.924Z" fill="#0D0B6D"/>
<path opacity="0.14688" fill-rule="evenodd" clip-rule="evenodd" d="M307.676 448.542L363.741 468.54C363.741 468.54 380.582 418.111 395.774 367.518C405.262 335.958 414.905 302.534 421.215 277.217C424.69 263.262 427.16 251.766 428.027 244.399C430.872 220.273 416.522 204.028 412.671 200.152H380.926C378.286 207.283 372.968 222.578 364.316 251.284C360.497 263.976 356.025 279.296 350.844 297.687C321.353 402.375 307.676 448.542 307.676 448.542Z" fill="white"/>
</g>
<g filter="url(#filter1_d_0_1)">
<path fill-rule="evenodd" clip-rule="evenodd" d="M500.054 91.1702L500.556 73.877C500.556 73.877 479.473 75.5501 474.963 73.2148C474.963 73.2148 469.451 44.9078 476.025 29.232L476.159 28.6216L520.65 23.4338L522.671 49.5465C524.169 45.1409 537.011 39.4788 540.244 45.7883C547.251 59.4603 522.198 68.6664 522.198 68.6664L524.742 91.3786" fill="#FFC9A3"/>
</g>
<g opacity="0.403344" filter="url(#filter2_d_0_1)">
<path fill-rule="evenodd" clip-rule="evenodd" d="M500.556 73.8769L514.773 70.8381L500.625 80.3647L500.556 73.8769Z" fill="black"/>
</g>
<path fill-rule="evenodd" clip-rule="evenodd" d="M488.83 45.6172L483.917 57.5882L489.804 57.6632L488.83 45.6172Z" fill="#F39E99"/>
<path fill-rule="evenodd" clip-rule="evenodd" d="M494.431 49.019C494.138 50.6307 495.212 52.174 496.829 52.4656C498.447 52.7571 499.995 51.6872 500.287 50.0748C500.58 48.4625 499.506 46.9197 497.889 46.6282C496.271 46.3367 494.723 47.4066 494.431 49.019Z" fill="#0D0B6D"/>
<path fill-rule="evenodd" clip-rule="evenodd" d="M478.979 49.019C478.687 50.6307 479.761 52.174 481.378 52.4656C482.995 52.7571 484.544 51.6872 484.836 50.0748C485.129 48.4625 484.054 46.9197 482.438 46.6282C480.82 46.3367 479.271 47.4066 478.979 49.019Z" fill="#0D0B6D"/>
<path fill-rule="evenodd" clip-rule="evenodd" d="M510.429 32.5585C510.429 32.5585 500.824 32.1366 483.944 32.5106C451.734 33.2237 469.18 8.68921 469.18 8.68921C469.18 8.68921 470.27 10.6336 490.062 10.6336C494.433 10.6336 498.677 10.5365 502.67 10.4451C513.735 10.1919 522.87 9.98287 527.424 12.0077C533.547 14.7296 536.291 24.2271 534.721 34.6183C534.226 37.9024 532.735 41.0209 530.844 43.8089C527.384 45.0724 522.115 48.1165 518.719 55.3603C518.618 55.5751 518.527 55.7829 518.445 55.9835L510.429 32.5585Z" fill="#936536"/>
<path fill-rule="evenodd" clip-rule="evenodd" d="M492.625 65.29C492.625 65.29 489.595 67.7682 485.832 66.18L492.625 65.29Z" fill="white"/>
<path d="M492.625 65.29C492.625 65.29 489.595 67.7682 485.832 66.18" stroke="#252535" stroke-width="4"/>
<path fill-rule="evenodd" clip-rule="evenodd" d="M497.743 62.7034C497.743 62.7034 496.104 58.4323 488.34 58.7528C480.576 59.0726 479.613 64.3647 479.613 64.3647L497.743 62.7034Z" fill="#19141E"/>
<g filter="url(#filter3_d_0_1)">
<path fill-rule="evenodd" clip-rule="evenodd" d="M409.667 128.265C416.947 142.599 442.5 189.653 460.717 182.148C474.357 176.528 490.685 129.939 490.685 129.939L464.143 114.098L452.217 146.114L427.864 119.583C428.691 114.325 429.354 107.453 427.705 105.03C424.899 100.906 410.699 88.2012 410.699 88.2012L408.114 109.728L407.662 107.913C407.663 107.812 407.638 107.703 407.587 107.584C407.582 107.573 407.577 107.562 407.572 107.55L406.527 103.35C406.965 103.128 407.145 102.811 406.956 102.373C406.801 102.017 406.465 101.628 405.996 101.218L402.427 86.8761C402.427 86.8761 401.256 87.3985 399.539 88.1813C396.777 87.6101 386.775 94.4287 386.623 94.5324L386.621 94.5336C384.585 95.8527 389.428 117.655 393.363 121.705C396.162 124.586 404.872 127.071 409.667 128.265ZM572.274 225.483L570.648 228.578C570.648 228.578 569.176 231.107 567.636 235.522C566.096 239.936 566.735 242.636 563.403 249.569C559.62 257.439 566.386 254.194 568.812 250.759C570.706 248.077 570.491 244.453 572.946 242.829C573.768 244.145 575.648 246.027 576.697 257.382C576.885 259.419 575.964 266.025 575.964 266.025C575.944 268.004 575.691 272.132 577.938 272.762C578.495 272.919 579.22 272.301 579.22 272.301C579.22 272.301 579.002 274.884 581.298 275.398C582.201 275.6 583.995 270.023 583.995 270.023C583.995 270.023 584.268 272.855 585.983 273.17C586.467 273.259 592.191 257.101 592.191 257.101L591.847 260.751L591.087 264.488C591.087 264.488 591.148 266.501 592.76 266.856C593.4 266.998 594.628 263.642 595.779 259.694C597.569 253.551 597.532 248.935 597.005 244.344C596.37 238.797 596.653 236.933 594.19 230.13C593.896 229.317 593.501 228.382 593.059 227.422C594.41 215.727 598.217 181.494 597.751 170.984C597.185 158.237 583.718 129.939 583.718 129.939L556.377 145.268L571.447 172.805L572.274 225.483ZM506.862 98.6809C522.699 97.7471 529.38 87.8768 530.904 85.2071C520.856 84.5113 519.806 84.6133 506.421 86.0034C500.993 86.5676 497.186 87.7256 493.499 88.7383C492.701 91.4541 491.566 99.5752 506.862 98.6809Z" fill="#FFC9A3"/>
<path fill-rule="evenodd" clip-rule="evenodd" d="M557.201 201.921H469.484L466.269 147.624L450.874 138.625L461.661 113.756L461.755 113.774C462.204 112.871 462.698 111.932 463.237 110.958C469.931 98.8652 481.382 92.0459 493.499 88.7383C493.695 88.6845 493.774 88.6463 493.783 88.659C493.806 88.6909 493.386 89.0454 493.266 90.2862C493.098 92.0196 493.643 94.3724 494.218 95.0878C495.573 96.7743 497.619 97.7318 498.442 97.957C499.265 98.1821 499.917 98.3132 500.645 98.4583C501.156 98.5601 504.058 98.7755 504.559 98.7493C508.69 98.5335 510.714 98.3416 513.315 97.7222C514.235 97.5029 515.188 97.2529 516.318 96.7762C516.529 96.6869 516.762 96.5913 517.01 96.4888C518.231 95.9858 519.857 95.3157 521.509 94.3903C523.255 93.4118 525.034 92.1213 526.322 90.8032C526.446 90.6759 526.568 90.5521 526.686 90.4317C528.038 89.0498 528.961 88.1072 529.6 87.1618C530.032 86.522 530.196 86.3093 530.292 86.1845C530.35 86.1088 530.383 86.0654 530.437 85.9787C530.578 85.7489 530.701 85.5464 530.735 85.4105C530.773 85.2643 530.638 85.2021 530.644 85.1872C530.647 85.1778 530.706 85.1875 530.904 85.2071C537.077 85.8186 543.713 87.4167 550.948 90.8032C573.328 101.272 586.407 127.575 586.407 127.575L558.672 148.375L557.201 201.921Z" fill="#55A300"/>
<path opacity="0.200521" d="M558.673 148.372L551.638 153.147L534.725 133.453" stroke="black" stroke-width="5"/>
<path fill-rule="evenodd" clip-rule="evenodd" d="M398.047 113.561L399.273 119.573H419.119L409.757 71.7078H389.911C390.426 74.3381 391.637 80.5332 393.546 90.2932L397.448 88.4845L398.664 88.1475L399.621 88.2012L400.036 88.4845V89.6474L395.793 95.749L399.039 97.163L404.032 99.7824L405.474 100.781L406.033 101.299L406.49 101.708L406.781 102.059L406.955 102.373L407.03 102.781L406.955 102.961L406.868 103.1L406.742 103.225L405.105 103.804L401.372 102.781H397.682L402.608 103.804L405.853 105.745L406.955 106.785L407.578 107.549V108.248L406.49 108.738L399.621 107.949L401.895 109.187L403.402 110.121L404.784 110.834L405.853 112.213V112.893L405.474 113.293L404.515 113.803H403.052H400.105L398.047 113.561Z" fill="#5E93D1"/>
<path fill-rule="evenodd" clip-rule="evenodd" d="M419.121 119.573H422.405L413.043 71.7078H409.76L419.121 119.573Z" fill="#020101"/>
<path fill-rule="evenodd" clip-rule="evenodd" d="M406.342 77.2656C406.616 78.6636 407.43 79.6822 408.159 79.5395C408.887 79.3975 409.255 78.1487 408.981 76.7507C408.707 75.352 407.893 74.3341 407.165 74.4761C406.436 74.6188 406.068 75.8676 406.342 77.2656Z" fill="#020101"/>
</g>
<g filter="url(#filter4_d_0_1)">
<path fill-rule="evenodd" clip-rule="evenodd" d="M614.217 443.55L596.48 427.229L602.641 410.719L640.605 439.003L609.852 492.867C609.852 492.867 608.864 479.481 610.472 464.653C611.582 454.411 614.217 443.55 614.217 443.55ZM444.549 479.655L448.6 466.551L465.752 467.461L451.477 503.447L396.642 471.571C412.914 466.629 444.549 479.655 444.549 479.655Z" fill="#FFBA07"/>
<path fill-rule="evenodd" clip-rule="evenodd" d="M624.751 427.296L602.901 410.704L600.951 431.389L614.218 443.551L624.751 427.296ZM458.584 485.528L464.844 470.298L447.887 468.765L444.549 479.654L458.584 485.528Z" fill="#FFC9A3"/>
<path fill-rule="evenodd" clip-rule="evenodd" d="M534.053 274.512L556.576 200.959H498.775L468.351 200.96C468.293 218.951 470.404 248.586 481.574 282.33L446.11 450.07C445.669 452.177 446.414 454.28 447.928 455.641L442.539 474.856L464.565 481.296L469.812 463.39L469.949 463.435C473.072 464.471 476.434 462.73 477.396 459.587L512.435 345.15C516.386 350.999 520.692 356.837 525.372 362.635C555.002 399.341 573.47 419.138 582.967 428.661C586.358 432.067 591.633 432.233 595.209 429.451L608.753 440.65L622.201 422.073L608.816 411.005C610.962 407.55 610.609 403.059 607.867 399.993C594.22 384.701 555.812 338.001 534.053 274.512Z" fill="#101016"/>
<path opacity="0.0987491" fill-rule="evenodd" clip-rule="evenodd" d="M469.811 463.39L469.949 463.435C473.072 464.471 476.435 462.73 477.396 459.587L512.435 345.149L534.053 274.513L556.576 200.959H498.775L481.574 282.33L446.11 450.07C445.669 452.177 446.414 454.28 447.928 455.641L442.538 474.856L464.564 481.296L469.811 463.39Z" fill="white"/>
<path fill-rule="evenodd" clip-rule="evenodd" d="M457.997 458.941L467.274 462.248L504.498 332.641L527.463 252.684L542.317 200.96H523.489L520.179 214.004L494.673 314.468L457.997 458.941Z" fill="#EFEFEF"/>
</g>
<g filter="url(#filter5_d_0_1)">
<path fill-rule="evenodd" clip-rule="evenodd" d="M186.607 98.3952C186.607 104.472 202.537 120.689 255.525 122.171C290.804 123.158 298.851 121.133 300.52 115.567C302.618 108.577 290.869 37.5673 245.059 36.1765C212.038 35.174 186.607 91.6099 186.607 98.3952Z" fill="#AE8B68"/>
<path fill-rule="evenodd" clip-rule="evenodd" d="M248.291 110.979C248.291 110.979 241.317 111.185 238.345 109.562L247.92 115.573L248.291 110.979Z" fill="#FFC9A3"/>
<path fill-rule="evenodd" clip-rule="evenodd" d="M263.831 108.644C260.277 111.006 253.806 111.297 248.289 110.979L247.028 126.64L229.565 120.853C229.565 120.853 231.297 102.501 232.046 95.8625C228.428 92.5783 221.724 90.5182 221.713 84.942C221.713 83.0167 222.84 79.6731 227.004 79.6678C232.59 79.6624 231.798 86.3549 231.798 86.3549C238.113 88.814 244.579 67.577 248.306 62.761C250.344 60.1347 265.994 66.0238 265.994 66.0238L274.876 75.9575C275.049 77.1763 274.423 101.601 263.831 108.644Z" fill="#FFC9A3"/>
<path fill-rule="evenodd" clip-rule="evenodd" d="M263.45 86.3447L267.441 96.0195L262.81 95.9268L263.45 86.3447Z" fill="#F39E99"/>
<path fill-rule="evenodd" clip-rule="evenodd" d="M259.201 86.7637C259.101 88.6965 257.965 90.2022 256.662 90.1273C255.359 90.0523 254.384 88.4247 254.483 86.4919C254.583 84.5591 255.719 83.0535 257.022 83.1284C258.325 83.2034 259.301 84.8309 259.201 86.7637Z" fill="#0D0B6D"/>
<path fill-rule="evenodd" clip-rule="evenodd" d="M271.436 86.4554C271.336 88.3882 270.199 89.8939 268.897 89.819C267.594 89.744 266.618 88.1164 266.717 86.1836C266.817 84.2508 267.954 82.7446 269.256 82.8196C270.559 82.8945 271.535 84.5226 271.436 86.4554Z" fill="#0D0B6D"/>
<path d="M261.675 100.56C261.675 100.56 258.658 101.534 255.635 98.1729" stroke="#1C295E" stroke-width="3"/>
<path opacity="0.398182" fill-rule="evenodd" clip-rule="evenodd" d="M248.279 110.979C248.279 110.979 241.306 111.185 238.334 109.562L247.909 115.573L248.279 110.979Z" fill="black"/>
<path fill-rule="evenodd" clip-rule="evenodd" d="M239.761 61.4208C239.761 61.4208 274.257 75.3593 277.907 93.9442C281.558 112.529 277.147 57.0105 277.147 57.0105L239.761 61.4208Z" fill="#AE8B68"/>
<path fill-rule="evenodd" clip-rule="evenodd" d="M295.792 235.952L296.018 235.923L276.692 189.332C276.692 189.332 281.743 136.383 267.146 122.981C260.728 117.089 253.682 116.741 240.483 116.088C239.29 116.029 238.046 115.968 236.748 115.9C235.586 115.839 234.412 115.756 233.226 115.673C225.171 115.106 216.55 114.5 207.114 120.445C196.589 127.076 185.334 149.835 177.947 170.791C169.586 194.512 171.411 235.026 171.448 235.833C169.415 239.45 167.498 246.17 166.553 250.161C166.155 251.848 166.63 257.743 167.583 260.976C168.123 262.808 169.316 264.506 169.316 264.506C169.316 264.506 170.749 267.871 171.307 268.165C172.885 268.995 173.581 267.375 173.581 267.375C173.581 267.375 174.645 271.679 175.729 271.203C175.767 271.187 175.806 271.17 175.846 271.153H175.846C176.506 270.867 177.379 270.489 177.402 269.348C177.557 261.648 179.065 253.604 181.711 252.215C183.41 251.324 184.025 254.351 184.601 257.185C184.922 258.765 185.231 260.285 185.708 261.033C187.002 263.059 192.096 264.504 190.811 260.962C190.478 260.046 190.207 259.321 189.985 258.728C189.465 257.337 189.217 256.675 189.091 255.99C188.975 255.365 188.961 254.722 188.933 253.493L188.93 253.372C188.856 250.079 188.435 244.482 188.435 244.482L184.249 231.094C184.2 231.126 184.151 231.157 184.102 231.188L193.295 181.344L205.934 162.24C205.934 162.24 214.112 178.039 215.453 186.545C216.482 193.049 216.065 197.549 216.065 197.549L264.364 198.261L265.593 209.268L283.323 237.514L283.647 237.474C282.256 245.677 288.035 257.402 288.035 257.402C288.035 257.402 285.028 255.568 284.43 257.172C284.164 257.885 283.561 263.586 294.821 263.97C296.016 264.012 298.892 261.579 298.892 261.579C298.892 261.579 296.795 265.583 300.006 266.37C300.006 266.37 305.18 258.617 305.26 256.892C305.339 255.167 303.678 246.434 302.78 244.671C302.262 243.654 298.709 239.385 295.792 235.952Z" fill="#FFC9A3"/>
<path opacity="0.152762" d="M290.334 241.756C290.334 241.756 291.914 247.724 297.336 249.584C299.232 250.235 298.759 257.911 303.406 256.993" stroke="black" stroke-width="3"/>
<path opacity="0.398112" d="M228.066 115.33L231.035 139.37" stroke="#2B2B38" stroke-width="3"/>
<path opacity="0.398112" d="M267.208 142.241C267.208 142.241 260.019 125.717 248.657 116.402" stroke="#2B2B38" stroke-width="3"/>
<path opacity="0.148693" d="M205.934 162.24L212.718 151.579" stroke="black" stroke-width="3"/>
<path fill-rule="evenodd" clip-rule="evenodd" d="M264.052 198.256L216.065 197.55C216.065 197.55 216.547 193.039 215.453 186.546C214.276 179.562 208.977 169.301 208.093 166.629C208.093 166.629 208.91 169.23 211.919 165.758C216.228 160.786 231.035 137.702 231.035 137.702C231.035 137.702 245.01 151.826 256.225 151.392C263.956 151.094 266.723 139.126 266.723 139.126C279.112 166.051 265.439 162.705 264.052 198.256Z" fill="#FCBDA4"/>
<path fill-rule="evenodd" clip-rule="evenodd" d="M308.833 458.003L311.807 469.392C311.807 469.392 335.429 459.144 348.172 463.676L305.947 490.364L295.299 458.513L308.833 458.003ZM165.602 423.778L152.408 437.089C152.408 437.089 153.607 444.338 153.665 452.735C153.75 464.888 152.087 476.788 152.087 476.788L133.291 433.382L161.019 410.313L165.602 423.778Z" fill="#A2D0A7"/>
<path fill-rule="evenodd" clip-rule="evenodd" d="M295.966 460.98L309.358 459.927L311.807 469.392L300.645 474.243L295.966 460.98ZM160.826 410.301L162.276 427.17L152.408 437.09L144.573 423.833L160.826 410.301Z" fill="#FFC9A3"/>
<path fill-rule="evenodd" clip-rule="evenodd" d="M262.176 253.844C264.875 265.669 268.091 279.677 271.918 296.218C296.854 403.96 312.706 463.418 312.706 463.418L310.44 464.107L310.429 464.113L298.4 467.783L298.369 467.788L288.72 470.734C288.72 470.734 259.732 401.69 235.987 337.668C231.371 346.591 226.035 355.529 219.869 364.333C187.707 410.252 158.777 439.641 158.777 439.641L155.634 433.846L155.629 433.841L148.512 420.721L148.45 420.605L145.343 414.878C145.343 414.878 192.678 364.729 212.398 268.687C208.738 256.235 206.31 246.048 205.699 239.37C203.898 219.666 216.642 201.972 219.284 198.536H249.823L264.04 198.536C264.348 201.027 266.468 223.07 262.176 253.843V253.844Z" fill="#101016"/>
<path opacity="0.145182" fill-rule="evenodd" clip-rule="evenodd" d="M312.706 463.418L310.44 464.107L310.429 464.113L298.4 467.783L298.369 467.788L288.72 470.734C288.72 470.734 259.733 401.689 235.987 337.668C226.605 312.367 218.037 287.848 212.398 268.687C208.738 256.235 206.31 246.048 205.699 239.37C203.898 219.666 216.642 201.972 219.285 198.536H249.823C251.352 205.72 254.856 221.775 262.176 253.843C264.875 265.669 268.091 279.677 271.919 296.218C296.854 403.96 312.706 463.418 312.706 463.418Z" fill="white"/>
</g>
<g filter="url(#filter6_d_0_1)">
<path fill-rule="evenodd" clip-rule="evenodd" d="M117.071 30.6951L59.996 32.139L59.9521 31.2256L59.2725 17.2485L58.7549 6.61094C58.5875 3.20262 61.4493 0.418008 64.8618 0.668512L110.757 4.02772C113.634 4.23397 115.894 6.55205 116.036 9.42014L116.283 14.4442L116.962 28.5146L117.071 30.6951Z" fill="black"/>
</g>
<g filter="url(#filter7_d_0_1)">
<path fill-rule="evenodd" clip-rule="evenodd" d="M116.962 28.5144C108.708 29.6194 99.0793 30.4887 88.787 30.9848C78.2674 31.4955 68.4028 31.5495 59.9517 31.2254L59.2721 17.2483C67.6494 16.1089 77.4745 15.2102 87.9987 14.7044C98.2921 14.2083 107.954 14.1445 116.283 14.4441L116.962 28.5144Z" fill="#D84F15"/>
</g>
<g filter="url(#filter8_d_0_1)">
<path fill-rule="evenodd" clip-rule="evenodd" d="M92.2989 83.7782L91.8304 67.6523C91.8304 67.6523 111.479 69.2126 115.682 67.0352C115.682 67.0352 120.819 40.6394 114.692 26.0218L114.568 25.4522L73.1046 21.5974L70.3305 43.7484C68.9338 39.64 57.8561 35.5769 54.8426 41.4605C48.3131 54.2094 71.6611 62.7936 71.6611 62.7936L69.2902 83.9721" fill="#FFC9A3"/>
</g>
<g opacity="0.398112" filter="url(#filter9_d_0_1)">
<path fill-rule="evenodd" clip-rule="evenodd" d="M91.8304 67.6523L78.5815 64.8191L91.7668 73.7022L91.8304 67.6523Z" fill="black"/>
</g>
<path fill-rule="evenodd" clip-rule="evenodd" d="M102.76 41.3L107.338 52.4633L101.851 52.5329L102.76 41.3Z" fill="#F39E99"/>
<path fill-rule="evenodd" clip-rule="evenodd" d="M97.54 44.4727C97.8121 45.9761 96.8115 47.4148 95.3042 47.6866C93.7963 47.9584 92.3537 46.9606 92.081 45.4573C91.8083 43.9539 92.8095 42.5157 94.3163 42.2434C95.8241 41.9715 97.2667 42.9694 97.54 44.4727Z" fill="#0D0B6D"/>
<path fill-rule="evenodd" clip-rule="evenodd" d="M111.94 44.4727C112.212 45.9761 111.211 47.4148 109.704 47.6866C108.196 47.9584 106.754 46.9606 106.481 45.4573C106.208 43.9539 107.209 42.5157 108.717 42.2434C110.224 41.9715 111.667 42.9694 111.94 44.4727Z" fill="#0D0B6D"/>
<path fill-rule="evenodd" clip-rule="evenodd" d="M97.067 55.6938C97.067 55.6938 98.9842 58.795 102.783 58.5326L97.067 55.6938Z" fill="white"/>
<path d="M97.067 55.6938C97.067 55.6938 98.9842 58.795 102.783 58.5326" stroke="#252535" stroke-width="4"/>
<g filter="url(#filter10_d_0_1)">
<path fill-rule="evenodd" clip-rule="evenodd" d="M116.899 34.2302C133.523 32.0132 144.617 28.8451 144.471 25.8389C144.252 21.3423 118.967 18.9108 87.9966 20.4077C57.0256 21.9051 32.0958 26.7637 32.3144 31.2603C32.5148 35.3816 53.7696 37.7679 81.1607 36.9856L81.7301 34.1192L81.2686 28.122C81.2686 28.122 115.12 26.4198 116.246 30.8786L116.899 34.2302Z" fill="#363638"/>
</g>
<path fill-rule="evenodd" clip-rule="evenodd" d="M75.0345 50.6733C78.3387 50.481 81.2169 50.0081 82.035 48.9859C83.35 47.3456 81.2683 28.1218 81.2683 28.1218C81.2683 28.1218 59.9425 29.4232 60.2768 33.5043C60.2768 33.5043 60.5495 35.8911 60.9069 38.8779C62.9996 39.2393 70.58 41.1581 74.9039 50.386C74.9496 50.4832 74.9931 50.5788 75.0345 50.6733Z" fill="#19141E"/>
<g filter="url(#filter11_d_0_1)">
<path fill-rule="evenodd" clip-rule="evenodd" d="M98.3809 469.837L98.5411 455.988L80.773 446.994L78.1941 486.584H139.754C129.279 474.727 98.3809 469.837 98.3809 469.837ZM26.9177 470.377L27.0774 454.822L10.0413 466.789L7.30957 469.517L3.0957 486.584H45.2288C39.9313 472.084 26.9177 470.377 26.9177 470.377Z" fill="black"/>
<path fill-rule="evenodd" clip-rule="evenodd" d="M7.30908 469.516L11.0146 449.456L28.7827 454.822L26.9178 470.376L7.30908 469.516ZM79.3413 468.976L80.7731 450.622L98.5418 455.989L98.381 469.836L79.3413 468.976Z" fill="#FFC9A3"/>
<path fill-rule="evenodd" clip-rule="evenodd" d="M100.139 186.419H115.224L110.785 448.577H113.181V464.009H66.2025V448.577H68.8606L66.2014 350.26L45.8957 448.293H48.6846L46.9794 464.293H0L1.70526 448.293H4.81343L39.7932 186.419H61.7707H100.139Z" fill="#2F2F3D"/>
<path opacity="0.200358" fill-rule="evenodd" clip-rule="evenodd" d="M65.415 359.349L84.9903 232.565L67.1899 395.969L65.415 359.349Z" fill="black"/>
</g>
<g filter="url(#filter12_d_0_1)">
<path fill-rule="evenodd" clip-rule="evenodd" d="M131.199 227.457C131.199 227.457 122.32 209.96 126.605 200.172C128.103 196.751 135.974 195.789 135.974 195.789C135.974 195.789 148.534 209.833 149.658 211.978C150.782 214.122 152.861 224.74 152.762 226.838C152.663 228.935 146.186 238.361 146.186 238.361C142.167 237.405 144.792 232.536 144.792 232.536C144.792 232.536 141.191 235.494 139.695 235.444C125.6 234.977 126.355 228.046 126.689 227.178C127.437 225.228 131.199 227.457 131.199 227.457ZM26.8647 207.868L24.3094 202.995L9.90903 201.385C8.87008 202.99 6.90787 206.755 6.00799 209.246C4.2645 214.07 4.07459 216.095 3.78096 219.227C3.70716 220.014 3.62676 220.871 3.51346 221.861C3.04715 225.936 3.01502 230.033 4.60091 235.486C5.62058 238.99 6.70861 241.968 7.27542 241.843C8.70295 241.527 8.75671 239.741 8.75671 239.741L8.08414 236.423L7.77912 233.185C7.77912 233.185 12.85 247.526 13.2795 247.447C14.7988 247.167 15.0407 244.654 15.0407 244.654C15.0407 244.654 16.6289 249.603 17.4289 249.424C19.4635 248.968 19.2707 246.676 19.2707 246.676C19.2707 246.676 19.9129 247.223 20.4061 247.084C22.2493 246.566 22.1935 243.386 22.1608 241.523C22.1582 241.375 22.1557 241.235 22.1544 241.105C22.1544 241.105 21.3393 235.242 21.5058 233.434C22.3547 224.225 23.8182 222.035 24.6203 220.835C24.6961 220.722 24.766 220.617 24.8289 220.517C26.0881 221.351 26.5544 222.781 27.0494 224.299C27.4094 225.402 27.7846 226.553 28.491 227.555C30.6396 230.604 36.6343 233.484 33.2831 226.499C31.4218 222.62 30.9593 220.234 30.5299 218.018C30.2781 216.719 30.0377 215.479 29.5334 214.031C28.1684 210.113 26.8647 207.868 26.8647 207.868Z" fill="#FFC9A3"/>
<path opacity="0.147531" d="M134.078 208.434C134.078 208.434 136.055 215.69 142.843 217.952C145.217 218.743 144.624 228.076 150.442 226.96" stroke="black" stroke-width="3"/>
<path fill-rule="evenodd" clip-rule="evenodd" d="M58.9197 84.8766L62.2657 73.3232L78.9777 74.3621L84.7685 83.8582L90.5593 75.08L94.7256 75.3368L96.1274 86.3393C96.8771 86.6472 97.5923 86.9551 98.2789 87.2631C99.2256 87.6891 100.114 88.1094 100.949 88.5354L100.996 88.5588C111.48 93.8715 113.998 99.2861 117.031 105.809V105.81C117.42 106.646 117.817 107.5 118.24 108.374C123.02 118.225 127.969 148.488 127.969 148.488L148.713 200.725L123.283 214.861L117.03 202.768L117.188 186.624H80.0768L75.9631 186.618H39.4771L38.9336 166.739L32.3131 206.614L3.24816 207.985C3.24816 207.985 2.67551 166.459 8.20919 142.435C11.7327 127.132 28.9473 98.6962 45.2503 88.9201C47.8565 87.3565 51.3158 86.2586 55.1782 85.5004C56.3913 85.2591 57.6435 85.0524 58.9197 84.8766ZM80.7693 190.753C80.7693 192.075 79.6964 193.147 78.3723 193.147C77.0482 193.147 75.9748 192.075 75.9748 190.753C75.9748 189.43 77.0482 188.358 78.3723 188.358C79.6964 188.358 80.7693 189.43 80.7693 190.753ZM104.741 193.28C106.066 193.28 107.139 192.208 107.139 190.886C107.139 189.563 106.066 188.491 104.741 188.491C103.418 188.491 102.344 189.563 102.344 190.886C102.344 192.208 103.418 193.28 104.741 193.28Z" fill="#4F4F4F"/>
<path opacity="0.197266" d="M39.0591 171.231L44.4087 143.333L57.6389 120.945" stroke="black" stroke-width="5"/>
<path opacity="0.195754" d="M116.02 186.738L118.547 146.088" stroke="black" stroke-width="5"/>
<path fill-rule="evenodd" clip-rule="evenodd" d="M75.27 76.7095L70.7455 91.1846L82.8904 85.7864L75.27 76.7095ZM93.3179 77.8708L86.0306 85.6451L95.782 91.3625L93.3179 77.8708Z" fill="#BF360C"/>
<path opacity="0.198451" fill-rule="evenodd" clip-rule="evenodd" d="M29.3474 201.943C29.3474 203.232 28.3009 204.277 27.0101 204.277C25.7193 204.277 24.6727 203.232 24.6727 201.943C24.6727 200.653 25.7193 199.608 27.0101 199.608C28.3009 199.608 29.3474 200.653 29.3474 201.943Z" fill="black"/>
<path opacity="0.199033" fill-rule="evenodd" clip-rule="evenodd" d="M144.597 198.889C144.597 200.179 143.551 201.223 142.26 201.223C140.969 201.223 139.922 200.179 139.922 198.889C139.922 197.6 140.969 196.554 142.26 196.554C143.551 196.554 144.597 197.6 144.597 198.889Z" fill="black"/>
<path opacity="0.202567" d="M3.23389 195.387L34.2797 194.01" stroke="black" stroke-width="4"/>
<path opacity="0.198684" d="M117.188 203.319L143.915 188.638" stroke="black" stroke-width="4"/>
<path opacity="0.197661" fill-rule="evenodd" clip-rule="evenodd" d="M80.0768 186.624L75.9631 186.618C75.7235 136.85 67.5603 103.646 55.1782 85.5003V85.4945L59.3504 84.5256C59.4147 84.6132 59.4789 84.7007 59.5374 84.7941C72.1824 102.537 80.5502 135.572 80.0768 186.624Z" fill="black"/>
<path opacity="0.196777" fill-rule="evenodd" clip-rule="evenodd" d="M107.81 186.624H103.62C109.498 138.753 105.782 105.63 96.117 86.3349C96.0995 86.2882 96.0761 86.2474 96.0527 86.2007L98.2791 87.2629L100.949 88.5353L100.996 88.5586C111.094 107.37 114.5 137.708 107.81 186.624Z" fill="black"/>
</g>
<defs>
<filter id="filter0_d_0_1" x="284.354" y="32.1243" width="221.164" height="462.689" filterUnits="userSpaceOnUse" color-interpolation-filters="sRGB">
<feFlood flood-opacity="0" result="BackgroundImageFix"/>
<feColorMatrix in="SourceAlpha" type="matrix" values="0 0 0 0 0 0 0 0 0 0 0 0 0 0 0 0 0 0 127 0" result="hardAlpha"/>
<feOffset dx="4" dy="4"/>
<feGaussianBlur stdDeviation="2"/>
<feComposite in2="hardAlpha" operator="out"/>
<feColorMatrix type="matrix" values="0 0 0 0 0 0 0 0 0 0 0 0 0 0 0 0 0 0 0.25 0"/>
<feBlend mode="normal" in2="BackgroundImageFix" result="effect1_dropShadow_0_1"/>
<feBlend mode="normal" in="SourceGraphic" in2="effect1_dropShadow_0_1" result="shape"/>
</filter>
<filter id="filter1_d_0_1" x="472.8" y="23.4338" width="76.6808" height="75.9448" filterUnits="userSpaceOnUse" color-interpolation-filters="sRGB">
<feFlood flood-opacity="0" result="BackgroundImageFix"/>
<feColorMatrix in="SourceAlpha" type="matrix" values="0 0 0 0 0 0 0 0 0 0 0 0 0 0 0 0 0 0 127 0" result="hardAlpha"/>
<feOffset dx="4" dy="4"/>
<feGaussianBlur stdDeviation="2"/>
<feComposite in2="hardAlpha" operator="out"/>
<feColorMatrix type="matrix" values="0 0 0 0 0 0 0 0 0 0 0 0 0 0 0 0 0 0 0.25 0"/>
<feBlend mode="normal" in2="BackgroundImageFix" result="effect1_dropShadow_0_1"/>
<feBlend mode="normal" in="SourceGraphic" in2="effect1_dropShadow_0_1" result="shape"/>
</filter>
<filter id="filter2_d_0_1" x="500.556" y="70.8381" width="22.2168" height="17.5266" filterUnits="userSpaceOnUse" color-interpolation-filters="sRGB">
<feFlood flood-opacity="0" result="BackgroundImageFix"/>
<feColorMatrix in="SourceAlpha" type="matrix" values="0 0 0 0 0 0 0 0 0 0 0 0 0 0 0 0 0 0 127 0" result="hardAlpha"/>
<feOffset dx="4" dy="4"/>
<feGaussianBlur stdDeviation="2"/>
<feComposite in2="hardAlpha" operator="out"/>
<feColorMatrix type="matrix" values="0 0 0 0 0 0 0 0 0 0 0 0 0 0 0 0 0 0 0.25 0"/>
<feBlend mode="normal" in2="BackgroundImageFix" result="effect1_dropShadow_0_1"/>
<feBlend mode="normal" in="SourceGraphic" in2="effect1_dropShadow_0_1" result="shape"/>
</filter>
<filter id="filter3_d_0_1" x="386.14" y="71.7078" width="219.65" height="211.696" filterUnits="userSpaceOnUse" color-interpolation-filters="sRGB">
<feFlood flood-opacity="0" result="BackgroundImageFix"/>
<feColorMatrix in="SourceAlpha" type="matrix" values="0 0 0 0 0 0 0 0 0 0 0 0 0 0 0 0 0 0 127 0" result="hardAlpha"/>
<feOffset dx="4" dy="4"/>
<feGaussianBlur stdDeviation="2"/>
<feComposite in2="hardAlpha" operator="out"/>
<feColorMatrix type="matrix" values="0 0 0 0 0 0 0 0 0 0 0 0 0 0 0 0 0 0 0.25 0"/>
<feBlend mode="normal" in2="BackgroundImageFix" result="effect1_dropShadow_0_1"/>
<feBlend mode="normal" in="SourceGraphic" in2="effect1_dropShadow_0_1" result="shape"/>
</filter>
<filter id="filter4_d_0_1" x="396.642" y="200.959" width="251.963" height="310.488" filterUnits="userSpaceOnUse" color-interpolation-filters="sRGB">
<feFlood flood-opacity="0" result="BackgroundImageFix"/>
<feColorMatrix in="SourceAlpha" type="matrix" values="0 0 0 0 0 0 0 0 0 0 0 0 0 0 0 0 0 0 127 0" result="hardAlpha"/>
<feOffset dx="4" dy="4"/>
<feGaussianBlur stdDeviation="2"/>
<feComposite in2="hardAlpha" operator="out"/>
<feColorMatrix type="matrix" values="0 0 0 0 0 0 0 0 0 0 0 0 0 0 0 0 0 0 0.25 0"/>
<feBlend mode="normal" in2="BackgroundImageFix" result="effect1_dropShadow_0_1"/>
<feBlend mode="normal" in="SourceGraphic" in2="effect1_dropShadow_0_1" result="shape"/>
</filter>
<filter id="filter5_d_0_1" x="133.291" y="36.1633" width="222.881" height="462.201" filterUnits="userSpaceOnUse" color-interpolation-filters="sRGB">
<feFlood flood-opacity="0" result="BackgroundImageFix"/>
<feColorMatrix in="SourceAlpha" type="matrix" values="0 0 0 0 0 0 0 0 0 0 0 0 0 0 0 0 0 0 127 0" result="hardAlpha"/>
<feOffset dx="4" dy="4"/>
<feGaussianBlur stdDeviation="2"/>
<feComposite in2="hardAlpha" operator="out"/>
<feColorMatrix type="matrix" values="0 0 0 0 0 0 0 0 0 0 0 0 0 0 0 0 0 0 0.25 0"/>
<feBlend mode="normal" in2="BackgroundImageFix" result="effect1_dropShadow_0_1"/>
<feBlend mode="normal" in="SourceGraphic" in2="effect1_dropShadow_0_1" result="shape"/>
</filter>
<filter id="filter6_d_0_1" x="58.7479" y="0.652832" width="66.3229" height="39.4861" filterUnits="userSpaceOnUse" color-interpolation-filters="sRGB">
<feFlood flood-opacity="0" result="BackgroundImageFix"/>
<feColorMatrix in="SourceAlpha" type="matrix" values="0 0 0 0 0 0 0 0 0 0 0 0 0 0 0 0 0 0 127 0" result="hardAlpha"/>
<feOffset dx="4" dy="4"/>
<feGaussianBlur stdDeviation="2"/>
<feComposite in2="hardAlpha" operator="out"/>
<feColorMatrix type="matrix" values="0 0 0 0 0 0 0 0 0 0 0 0 0 0 0 0 0 0 0.25 0"/>
<feBlend mode="normal" in2="BackgroundImageFix" result="effect1_dropShadow_0_1"/>
<feBlend mode="normal" in="SourceGraphic" in2="effect1_dropShadow_0_1" result="shape"/>
</filter>
<filter id="filter7_d_0_1" x="59.2721" y="14.2634" width="65.6902" height="25.1646" filterUnits="userSpaceOnUse" color-interpolation-filters="sRGB">
<feFlood flood-opacity="0" result="BackgroundImageFix"/>
<feColorMatrix in="SourceAlpha" type="matrix" values="0 0 0 0 0 0 0 0 0 0 0 0 0 0 0 0 0 0 127 0" result="hardAlpha"/>
<feOffset dx="4" dy="4"/>
<feGaussianBlur stdDeviation="2"/>
<feComposite in2="hardAlpha" operator="out"/>
<feColorMatrix type="matrix" values="0 0 0 0 0 0 0 0 0 0 0 0 0 0 0 0 0 0 0.25 0"/>
<feBlend mode="normal" in2="BackgroundImageFix" result="effect1_dropShadow_0_1"/>
<feBlend mode="normal" in="SourceGraphic" in2="effect1_dropShadow_0_1" result="shape"/>
</filter>
<filter id="filter8_d_0_1" x="53.6902" y="21.5974" width="72.0077" height="70.3748" filterUnits="userSpaceOnUse" color-interpolation-filters="sRGB">
<feFlood flood-opacity="0" result="BackgroundImageFix"/>
<feColorMatrix in="SourceAlpha" type="matrix" values="0 0 0 0 0 0 0 0 0 0 0 0 0 0 0 0 0 0 127 0" result="hardAlpha"/>
<feOffset dx="4" dy="4"/>
<feGaussianBlur stdDeviation="2"/>
<feComposite in2="hardAlpha" operator="out"/>
<feColorMatrix type="matrix" values="0 0 0 0 0 0 0 0 0 0 0 0 0 0 0 0 0 0 0.25 0"/>
<feBlend mode="normal" in2="BackgroundImageFix" result="effect1_dropShadow_0_1"/>
<feBlend mode="normal" in="SourceGraphic" in2="effect1_dropShadow_0_1" result="shape"/>
</filter>
<filter id="filter9_d_0_1" x="78.5815" y="64.8191" width="21.2489" height="16.8831" filterUnits="userSpaceOnUse" color-interpolation-filters="sRGB">
<feFlood flood-opacity="0" result="BackgroundImageFix"/>
<feColorMatrix in="SourceAlpha" type="matrix" values="0 0 0 0 0 0 0 0 0 0 0 0 0 0 0 0 0 0 127 0" result="hardAlpha"/>
<feOffset dx="4" dy="4"/>
<feGaussianBlur stdDeviation="2"/>
<feComposite in2="hardAlpha" operator="out"/>
<feColorMatrix type="matrix" values="0 0 0 0 0 0 0 0 0 0 0 0 0 0 0 0 0 0 0.25 0"/>
<feBlend mode="normal" in2="BackgroundImageFix" result="effect1_dropShadow_0_1"/>
<feBlend mode="normal" in="SourceGraphic" in2="effect1_dropShadow_0_1" result="shape"/>
</filter>
<filter id="filter10_d_0_1" x="32.313" y="19.9661" width="120.159" height="25.1672" filterUnits="userSpaceOnUse" color-interpolation-filters="sRGB">
<feFlood flood-opacity="0" result="BackgroundImageFix"/>
<feColorMatrix in="SourceAlpha" type="matrix" values="0 0 0 0 0 0 0 0 0 0 0 0 0 0 0 0 0 0 127 0" result="hardAlpha"/>
<feOffset dx="4" dy="4"/>
<feGaussianBlur stdDeviation="2"/>
<feComposite in2="hardAlpha" operator="out"/>
<feColorMatrix type="matrix" values="0 0 0 0 0 0 0 0 0 0 0 0 0 0 0 0 0 0 0.25 0"/>
<feBlend mode="normal" in2="BackgroundImageFix" result="effect1_dropShadow_0_1"/>
<feBlend mode="normal" in="SourceGraphic" in2="effect1_dropShadow_0_1" result="shape"/>
</filter>
<filter id="filter11_d_0_1" x="0" y="186.419" width="147.754" height="308.165" filterUnits="userSpaceOnUse" color-interpolation-filters="sRGB">
<feFlood flood-opacity="0" result="BackgroundImageFix"/>
<feColorMatrix in="SourceAlpha" type="matrix" values="0 0 0 0 0 0 0 0 0 0 0 0 0 0 0 0 0 0 127 0" result="hardAlpha"/>
<feOffset dx="4" dy="4"/>
<feGaussianBlur stdDeviation="2"/>
<feComposite in2="hardAlpha" operator="out"/>
<feColorMatrix type="matrix" values="0 0 0 0 0 0 0 0 0 0 0 0 0 0 0 0 0 0 0.25 0"/>
<feBlend mode="normal" in2="BackgroundImageFix" result="effect1_dropShadow_0_1"/>
<feBlend mode="normal" in="SourceGraphic" in2="effect1_dropShadow_0_1" result="shape"/>
</filter>
<filter id="filter12_d_0_1" x="3.14526" y="73.3232" width="157.621" height="184.106" filterUnits="userSpaceOnUse" color-interpolation-filters="sRGB">
<feFlood flood-opacity="0" result="BackgroundImageFix"/>
<feColorMatrix in="SourceAlpha" type="matrix" values="0 0 0 0 0 0 0 0 0 0 0 0 0 0 0 0 0 0 127 0" result="hardAlpha"/>
<feOffset dx="4" dy="4"/>
<feGaussianBlur stdDeviation="2"/>
<feComposite in2="hardAlpha" operator="out"/>
<feColorMatrix type="matrix" values="0 0 0 0 0 0 0 0 0 0 0 0 0 0 0 0 0 0 0.25 0"/>
<feBlend mode="normal" in2="BackgroundImageFix" result="effect1_dropShadow_0_1"/>
<feBlend mode="normal" in="SourceGraphic" in2="effect1_dropShadow_0_1" result="shape"/>
</filter>
</defs>
</svg>
