<svg width="604" height="351" viewBox="0 0 604 351" fill="none" xmlns="http://www.w3.org/2000/svg">
<g filter="url(#filter0_d_105_3082)">
<path d="M352.537 23.072H379.581H352.537Z" fill="#486178"/>
<path d="M352.537 23.072H379.581" stroke="#8B9EB6" stroke-width="12"/>
<path d="M322.493 116.313L293.485 56.2244L322.493 116.313Z" fill="#486178"/>
<path d="M322.493 116.313L293.485 56.2244" stroke="#8B9EB6" stroke-width="12"/>
<path d="M353.573 22.0361L293.485 56.2245L353.573 22.0361Z" fill="#486178"/>
<path d="M353.573 22.0361L293.485 56.2245" stroke="#8B9EB6" stroke-width="12"/>
<path fill-rule="evenodd" clip-rule="evenodd" d="M303.845 121.493H357.717C357.717 116.916 353.745 113.205 348.845 113.205H312.717C307.817 113.205 303.845 116.916 303.845 121.493Z" fill="#486178"/>
<path fill-rule="evenodd" clip-rule="evenodd" d="M393.978 43.7922C393.978 31.2045 383.773 21 371.186 21C358.598 21 348.393 31.2045 348.393 43.7922" fill="#486178"/>
<path fill-rule="evenodd" clip-rule="evenodd" d="M242.72 342.164H247.65L277.944 135.997H260.897L242.72 342.164Z" fill="#936536"/>
<path fill-rule="evenodd" clip-rule="evenodd" d="M330.781 342.164H335.711L366.005 135.997H348.958L330.781 342.164Z" fill="#936536"/>
<path fill-rule="evenodd" clip-rule="evenodd" d="M453.977 58.2964H528.659L511.136 116.313H436.454L453.977 58.2964Z" fill="#D4D4D4"/>
<path fill-rule="evenodd" clip-rule="evenodd" d="M523.479 62.4404L508.51 112.169H441.634L456.604 62.4404H523.479Z" fill="white"/>
<path fill-rule="evenodd" clip-rule="evenodd" d="M511.047 76.9446L510.329 80.0526H455.102L455.819 76.9446H511.047Z" fill="#5D6066"/>
<path fill-rule="evenodd" clip-rule="evenodd" d="M507.939 82.1248L507.225 84.1968H454.066L454.78 82.1248H507.939Z" fill="#5D6066"/>
<path fill-rule="evenodd" clip-rule="evenodd" d="M491.363 87.3047L490.64 89.3767H451.994L452.717 87.3047H491.363Z" fill="#5D6066"/>
<path fill-rule="evenodd" clip-rule="evenodd" d="M381.546 121.493H456.138V116.313H381.546V121.493Z" fill="#D4D4D4"/>
<path fill-rule="evenodd" clip-rule="evenodd" d="M456.138 121.493H511.047V116.313H456.138V121.493Z" fill="#939393"/>
<path fill-rule="evenodd" clip-rule="evenodd" d="M529.109 58.2964H533.839L515.777 116.313H511.047L529.109 58.2964Z" fill="#939393"/>
<path fill-rule="evenodd" clip-rule="evenodd" d="M222 135.997H505.867V121.493H222V135.997Z" fill="#936536"/>
<path fill-rule="evenodd" clip-rule="evenodd" d="M485.147 135.997H596V121.493H485.147V135.997Z" fill="#AE8B68"/>
<path fill-rule="evenodd" clip-rule="evenodd" d="M582.637 342.164H587.712L569.001 135.997H551.451L582.637 342.164Z" fill="#AE8B68"/>
<path fill-rule="evenodd" clip-rule="evenodd" d="M493.685 342.164H498.615L480.438 135.997H463.39L493.685 342.164Z" fill="#AE8B68"/>
<path fill-rule="evenodd" clip-rule="evenodd" d="M514.155 67.6206L513.438 70.7286H458.21L458.927 67.6206H514.155Z" fill="#5D6066"/>
<path fill-rule="evenodd" clip-rule="evenodd" d="M506.903 72.8005L506.189 74.8726H457.174L457.889 72.8005H506.903Z" fill="#5D6066"/>
<path fill-rule="evenodd" clip-rule="evenodd" d="M495.507 61.3323L486.118 62.4404L485.366 61.2896L485.861 60.2399L485.147 59.4045L493.918 58.2964L495.243 59.0674L494.133 60.1478L495.507 61.3323Z" fill="#5D6066"/>
<path fill-rule="evenodd" clip-rule="evenodd" d="M137.205 330.548C137.205 336.91 142.363 342.069 148.726 342.069C155.088 342.069 160.246 336.91 160.246 330.548C160.246 324.185 155.088 319.026 148.726 319.026C142.363 319.026 137.205 324.185 137.205 330.548Z" fill="#7A7A7A"/>
<path fill-rule="evenodd" clip-rule="evenodd" d="M51.0282 330.548C51.0282 336.91 56.1866 342.069 62.5496 342.069C68.9119 342.069 74.0697 336.91 74.0697 330.548C74.0697 324.185 68.9119 319.026 62.5496 319.026C56.1866 319.026 51.0282 324.185 51.0282 330.548Z" fill="#7A7A7A"/>
<path fill-rule="evenodd" clip-rule="evenodd" d="M159.41 232.156H44.5085V219.663H159.41V232.156Z" fill="#B9BABB"/>
<path fill-rule="evenodd" clip-rule="evenodd" d="M29.355 232.156H82.8654L92.7766 168.064V118.609C92.7766 94.525 73.2529 75 49.1674 75C25.0826 75 5.55829 94.525 5.55829 118.609V168.064L0.284233 198.769C-2.16647 216.415 11.54 232.156 29.355 232.156Z" fill="#B9BABB"/>
<path fill-rule="evenodd" clip-rule="evenodd" d="M83.3927 228.192H117.097C99.3893 228.192 85.7317 212.631 87.9842 195.114L83.3927 228.192Z" fill="#B9BABB"/>
<path fill-rule="evenodd" clip-rule="evenodd" d="M66.2953 117.904C66.2953 126.705 59.1586 133.841 50.3581 133.841C49.922 133.841 49.4859 133.822 49.0631 133.788C48.7254 133.762 48.395 133.722 48.0647 133.67C40.3538 132.566 34.4276 125.926 34.4276 117.904C34.4276 109.889 40.3538 103.249 48.0647 102.145C48.395 102.093 48.7254 102.053 49.0631 102.026C49.4859 101.993 49.922 101.974 50.3581 101.974C59.1586 101.974 66.2953 109.11 66.2953 117.904Z" fill="#7A7A7A"/>
<path fill-rule="evenodd" clip-rule="evenodd" d="M61.6892 117.904C61.6892 125.919 55.7689 132.553 48.0647 133.67C40.3538 132.566 34.4269 125.926 34.4269 117.904C34.4269 109.889 40.3538 103.249 48.0647 102.146C55.7689 103.262 61.6892 109.896 61.6892 117.904Z" fill="white"/>
<path fill-rule="evenodd" clip-rule="evenodd" d="M32.0794 332.858H145.931C150.291 332.858 153.86 329.29 153.86 324.929C153.86 320.567 150.291 317 145.931 317H32.0794C27.7178 317 24.1505 320.567 24.1505 324.929C24.1505 329.29 27.7178 332.858 32.0794 332.858Z" fill="#AAABAB"/>
<path fill-rule="evenodd" clip-rule="evenodd" d="M88.9999 317H81.9999V232H88.9999V317Z" fill="#AAABAB"/>
<path fill-rule="evenodd" clip-rule="evenodd" d="M45.491 232.156L85.5255 250.389L125.56 232.156H45.491Z" fill="#AAABAB"/>
<path fill-rule="evenodd" clip-rule="evenodd" d="M93.867 332.858H108.64C113.001 332.858 116.569 329.29 116.569 324.929C116.569 320.567 113.001 317 108.64 317H93.867C89.5054 317 85.938 320.567 85.938 324.929C85.938 329.29 89.5054 332.858 93.867 332.858Z" fill="#7A7A7A"/>
<path fill-rule="evenodd" clip-rule="evenodd" d="M103.557 330.548C103.557 336.91 108.716 342.069 115.079 342.069C121.441 342.069 126.599 336.91 126.599 330.548C126.599 324.185 121.441 319.026 115.079 319.026C108.716 319.026 103.557 324.185 103.557 330.548Z" fill="#7A7A7A"/>
<path fill-rule="evenodd" clip-rule="evenodd" d="M16.9999 330.548C16.9999 336.91 22.1583 342.069 28.5213 342.069C34.8836 342.069 40.0414 336.91 40.0414 330.548C40.0414 324.185 34.8836 319.026 28.5213 319.026C22.1583 319.026 16.9999 324.185 16.9999 330.548Z" fill="#7A7A7A"/>
<path fill-rule="evenodd" clip-rule="evenodd" d="M62.3803 221.584H154.514C160.437 221.584 165.239 216.782 165.239 210.86V210.86C165.239 204.937 160.437 200.135 154.514 200.135H62.3803C56.4567 200.135 51.6558 204.937 51.6558 210.86V210.86C51.6558 216.782 56.4567 221.584 62.3803 221.584Z" fill="#AAABAB"/>
<path fill-rule="evenodd" clip-rule="evenodd" d="M25.3489 221.584H80.1689C86.0919 221.584 90.8928 216.782 90.8928 210.86V210.86C90.8928 204.937 86.0919 200.135 80.1689 200.135H25.3489C19.426 200.135 14.6244 204.937 14.6244 210.86V210.86C14.6244 216.782 19.426 221.584 25.3489 221.584Z" fill="#7A7A7A"/>
<path fill-rule="evenodd" clip-rule="evenodd" d="M198.68 320.926L198.824 307.633L182.797 299L180.47 337H236C226.552 325.62 198.68 320.926 198.68 320.926ZM109.756 320.4L109.909 304.589L92.5998 303.711L91.0249 319.526L86.9999 336.874H127.248C122.188 322.136 109.756 320.4 109.756 320.4Z" fill="#0D0B6D"/>
<path fill-rule="evenodd" clip-rule="evenodd" d="M90.9999 319.587L92.9142 299L109.919 304.506L109.766 320.469L90.9999 319.587ZM181.648 320.167L182.943 302.381L199 307.58L198.855 321L181.648 320.167Z" fill="#E9B895"/>
<path fill-rule="evenodd" clip-rule="evenodd" d="M118.959 23.5369C118.959 31.1924 114.036 37.3982 107.962 37.3982C101.89 37.3982 96.9661 31.1924 96.9661 23.5369C96.9661 15.8813 101.89 9.67554 107.962 9.67554C114.036 9.67554 118.959 15.8813 118.959 23.5369Z" fill="#19141E"/>
<mask id="mask0_105_3082" style="mask-type:alpha" maskUnits="userSpaceOnUse" x="54" y="16" width="64" height="63">
<path d="M92.9367 78.4488L92.4764 62.5283C92.4764 62.5283 111.783 64.0687 115.913 61.9188C115.913 61.9188 120.961 35.8583 114.941 21.4268L114.819 20.8648L74.0762 16.0894L71.7921 39.5167C70.4197 35.4604 59.093 30.8608 56.1324 36.6695C49.716 49.2561 72.6579 57.731 72.6579 57.731L70.3282 78.6399" fill="white"/>
</mask>
<g mask="url(#mask0_105_3082)">
<path d="M92.9367 78.4488L92.4764 62.5283C92.4764 62.5283 111.783 64.0687 115.913 61.9188C115.913 61.9188 120.961 35.8583 114.941 21.4268L114.819 20.8648L74.0762 16.0894L71.7921 39.5167C70.4197 35.4604 59.093 30.8608 56.1324 36.6695C49.716 49.2561 72.6579 57.731 72.6579 57.731L70.3282 78.6399" fill="#FFC9A3"/>
<path d="M118.024 16.0007H54.9998V79.0136H118.024V16.0007Z" fill="#FFC9A3"/>
</g>
<path opacity="0.398926" fill-rule="evenodd" clip-rule="evenodd" d="M92.4764 62.5279L79.4575 59.7307L92.414 68.5009L92.4764 62.5279Z" fill="black"/>
<path fill-rule="evenodd" clip-rule="evenodd" d="M102.884 39.219L107.382 50.24L101.991 50.3088L102.884 39.219Z" fill="#F39E99"/>
<path fill-rule="evenodd" clip-rule="evenodd" d="M98.086 39.6432C98.3541 41.1274 97.3703 42.5481 95.8895 42.8162C94.4082 43.0848 92.9904 42.0991 92.7228 40.6154C92.4547 39.1312 93.438 37.7106 94.9193 37.4419C96.4005 37.1738 97.8179 38.1591 98.086 39.6432Z" fill="#0D0B6D"/>
<path fill-rule="evenodd" clip-rule="evenodd" d="M113.204 39.6432C113.472 41.1274 112.488 42.5481 111.007 42.8162C109.526 43.0848 108.108 42.0991 107.84 40.6154C107.572 39.1312 108.555 37.7106 110.037 37.4419C111.518 37.1738 112.935 38.1591 113.204 39.6432Z" fill="#0D0B6D"/>
<path fill-rule="evenodd" clip-rule="evenodd" d="M74.8175 43.5152C70.9545 36.8903 65.3655 34.8698 62.8567 34.2773C61.8562 31.3795 61.0934 28.0186 60.5575 24.4442C59.1203 14.8778 66.0617 6.14977 71.6684 3.6435C77.3438 1.10717 87.1297 -2.40762 101.454 2.36346C111.084 5.57327 117.239 -2.11136 122.906 1.17069C132.59 6.78058 123.583 31.341 99.0289 25.1017C81.4654 20.6385 81.0139 21.7581 80.8634 25.0023C80.3765 35.4888 78.7445 41.658 74.8175 43.5152Z" fill="#AF733A"/>
<path fill-rule="evenodd" clip-rule="evenodd" d="M95.394 50.7183C95.394 50.7183 97.1251 53.8699 100.866 53.7952L95.394 50.7183Z" fill="white"/>
<path d="M95.394 50.7183C95.394 50.7183 97.1251 53.8699 100.866 53.7952" stroke="#252535" stroke-width="4"/>
<path fill-rule="evenodd" clip-rule="evenodd" d="M101.577 39.7751C101.577 43.2254 98.7852 46.0221 95.3416 46.0221C91.8985 46.0221 89.1067 43.2254 89.1067 39.7751C89.1067 36.3248 91.8985 33.5276 95.3416 33.5276C98.7852 33.5276 101.577 36.3248 101.577 39.7751Z" stroke="#252535" stroke-width="4"/>
<path fill-rule="evenodd" clip-rule="evenodd" d="M117.277 39.7751C117.277 43.2254 114.485 46.0221 111.042 46.0221C107.598 46.0221 104.807 43.2254 104.807 39.7751C104.807 36.3248 107.598 33.5276 111.042 33.5276C114.485 33.5276 117.277 36.3248 117.277 39.7751Z" stroke="#252535" stroke-width="4"/>
<path d="M104.299 40.0647H101.603" stroke="#252535" stroke-width="4"/>
<path d="M89.1069 39.7751H73.7046" stroke="#252535" stroke-width="4"/>
<path fill-rule="evenodd" clip-rule="evenodd" d="M164.992 108.897C159.11 120.529 138.464 158.713 123.746 152.623C112.726 148.062 99.5339 110.255 99.5339 110.255L120.978 97.4L130.614 123.381L150.289 101.851C149.621 97.5846 149.086 92.0076 150.418 90.0415C152.685 86.6951 164.158 76.3849 164.158 76.3849L166.247 93.8537L166.612 92.3811C166.611 92.2991 166.631 92.2103 166.672 92.1144C166.676 92.1052 166.68 92.0959 166.685 92.0867L167.529 88.6779C167.174 88.4976 167.029 88.2408 167.182 87.8852C167.307 87.5966 167.578 87.2803 167.958 86.9479L170.841 75.3095C170.841 75.3095 171.787 75.7335 173.175 76.3687C175.406 75.9052 183.487 81.4385 183.609 81.5226L183.611 81.5236C185.257 82.5941 181.343 100.287 178.164 103.573C175.903 105.912 168.866 107.928 164.992 108.897ZM33.6154 187.789L34.9289 190.301C34.9289 190.301 36.1178 192.354 37.3627 195.936C38.607 199.517 38.0901 201.709 40.7823 207.335C43.8385 213.722 38.372 211.088 36.412 208.3C34.8821 206.124 35.0558 203.184 33.0723 201.865C32.4078 202.934 30.889 204.461 30.0417 213.676C29.8899 215.328 30.6338 220.689 30.6338 220.689C30.6498 222.295 30.8544 225.645 29.0388 226.156C28.589 226.283 28.0034 225.782 28.0034 225.782C28.0034 225.782 28.1792 227.878 26.3242 228.296C25.5947 228.459 24.1457 223.934 24.1457 223.934C24.1457 223.934 23.9251 226.232 22.5396 226.488C22.1479 226.56 17.5234 213.447 17.5234 213.447L17.8016 216.409L18.4155 219.442C18.4155 219.442 18.3659 221.075 17.064 221.364C16.5471 221.478 15.5549 218.755 14.625 215.551C13.1787 210.566 13.208 206.82 13.6338 203.095C14.1475 198.593 13.9189 197.081 15.9082 191.561C16.1461 190.9 16.4654 190.142 16.822 189.363C15.7305 179.872 12.6547 152.092 13.0317 143.563C13.4884 133.219 24.3691 110.255 24.3691 110.255L46.4594 122.695L34.2837 145.041L33.6154 187.789ZM86.464 84.8892C73.6691 84.1314 68.2709 76.1216 67.0399 73.9551C75.158 73.3905 76.0064 73.4732 86.82 74.6013C91.2058 75.0592 94.2817 75.9989 97.2606 76.8207C97.9054 79.0246 98.822 85.6149 86.464 84.8892Z" fill="#FFC9A3"/>
<path fill-rule="evenodd" clip-rule="evenodd" d="M45.7929 168.669H116.663L119.26 124.606L131.699 117.304L122.983 97.1222L122.907 97.1372C122.544 96.4038 122.146 95.6424 121.71 94.8518C116.301 85.0384 107.05 79.5046 97.2605 76.8204C97.1022 76.7768 97.0382 76.7458 97.0308 76.7561C97.0121 76.782 97.3516 77.0697 97.4486 78.0765C97.5845 79.4832 97.1438 81.3925 96.6796 81.973C95.585 83.3417 93.932 84.1187 93.2669 84.3014C92.6018 84.4841 92.0748 84.5905 91.4865 84.7083C91.074 84.7908 88.7293 84.9657 88.3243 84.9444C84.9873 84.7692 83.3518 84.6135 81.2506 84.1109C80.5066 83.9329 79.7371 83.73 78.8243 83.3432C78.6532 83.2707 78.4656 83.1932 78.2647 83.11C77.2783 82.7018 75.9647 82.158 74.6304 81.407C73.2198 80.613 71.782 79.5657 70.7413 78.4961C70.6411 78.3928 70.543 78.2923 70.4476 78.1946C69.3552 77.0733 68.6097 76.3083 68.0933 75.5411C67.7437 75.0219 67.6115 74.8493 67.5343 74.748C67.4874 74.6866 67.4602 74.6514 67.417 74.581C67.3025 74.3946 67.2039 74.2302 67.1756 74.1199C67.1453 74.0013 67.254 73.9508 67.2497 73.9387C67.247 73.9311 67.1991 73.939 67.0397 73.9548C62.0518 74.4511 56.6907 75.7479 50.8448 78.4961C32.7636 86.9915 22.1962 108.337 22.1962 108.337L44.6046 125.215L45.7929 168.669Z" fill="#5E93D1"/>
<path opacity="0.200521" d="M44.6035 125.213L50.288 129.088L63.9521 113.107" stroke="black" stroke-width="5"/>
<path fill-rule="evenodd" clip-rule="evenodd" d="M174.38 96.964L173.389 101.843H157.355L164.918 63H180.953C180.537 65.1345 179.558 70.1619 178.016 78.0821L174.863 76.6143L173.881 76.3409L173.108 76.3845L172.773 76.6143V77.558L176.2 82.5095L173.579 83.6569L169.545 85.7826L168.379 86.5933L167.927 87.0134L167.558 87.3452L167.323 87.6302L167.182 87.885L167.122 88.2159L167.182 88.3623L167.253 88.4749L167.354 88.5766L168.677 89.0459L171.693 88.2159H174.674L170.695 89.0459L168.073 90.6216L167.182 91.4652L166.679 92.0851V92.6522L167.558 93.0498L173.108 92.4099L171.271 93.414L170.053 94.1726L168.936 94.751L168.073 95.8699V96.422L168.379 96.7462L169.154 97.1603H170.336H172.717L174.38 96.964Z" fill="#5E93D1"/>
<path fill-rule="evenodd" clip-rule="evenodd" d="M157.354 101.843H154.7L162.264 63H164.916L157.354 101.843Z" fill="#020101"/>
<path fill-rule="evenodd" clip-rule="evenodd" d="M91.8208 168H44.9999V180.446C44.9999 195.912 57.6739 208.449 73.3084 208.449H87.1951H93.9498L89.024 313H118.131L128.954 208.449H179.513L178.15 313H207.755L221.736 205.761C224.241 185.707 208.579 168 188.341 168H108.542H91.8208Z" fill="#18181C"/>
<path opacity="0.101632" fill-rule="evenodd" clip-rule="evenodd" d="M44.9999 168H103.215C115.242 168 124.645 178.289 123.465 190.159L112 301.186H85.3336L89.8465 205.154H70.9354C56.6115 205.154 44.9999 193.638 44.9999 179.432V168Z" fill="white"/>
</g>
<defs>
<filter id="filter0_d_105_3082" x="0" y="0" width="604" height="350.164" filterUnits="userSpaceOnUse" color-interpolation-filters="sRGB">
<feFlood flood-opacity="0" result="BackgroundImageFix"/>
<feColorMatrix in="SourceAlpha" type="matrix" values="0 0 0 0 0 0 0 0 0 0 0 0 0 0 0 0 0 0 127 0" result="hardAlpha"/>
<feOffset dx="4" dy="4"/>
<feGaussianBlur stdDeviation="2"/>
<feComposite in2="hardAlpha" operator="out"/>
<feColorMatrix type="matrix" values="0 0 0 0 0 0 0 0 0 0 0 0 0 0 0 0 0 0 0.25 0"/>
<feBlend mode="normal" in2="BackgroundImageFix" result="effect1_dropShadow_105_3082"/>
<feBlend mode="normal" in="SourceGraphic" in2="effect1_dropShadow_105_3082" result="shape"/>
</filter>
</defs>
</svg>
