<svg width="217" height="222" viewBox="0 0 217 222" fill="none" xmlns="http://www.w3.org/2000/svg">
<g clip-path="url(#clip0_105_2504)">
<path d="M217 126.161C216.81 127.605 216.589 129.043 216.337 130.466C216.039 132.202 215.695 133.922 215.315 135.627C214.478 139.38 213.45 143.06 212.248 146.662C211.488 148.94 210.66 151.176 209.756 153.381C208.297 156.973 206.653 160.47 204.84 163.859C204.562 164.375 204.285 164.891 204.002 165.401C203.643 166.048 203.278 166.689 202.903 167.33C201.105 170.421 199.168 173.413 197.092 176.301C195.587 178.396 194.015 180.435 192.371 182.415C188.677 186.867 184.644 191.027 180.314 194.842C179.255 195.775 178.176 196.688 177.082 197.579C176.404 198.137 175.721 198.679 175.027 199.216C169.633 203.401 163.843 207.092 157.724 210.214C157.575 210.292 157.426 210.371 157.272 210.444C150.285 213.973 142.877 216.761 135.14 218.716C133.604 219.102 132.058 219.461 130.496 219.779C124.67 220.978 118.675 221.708 112.551 221.927C111.246 221.974 109.936 222 108.621 222C103.17 222 97.8116 221.593 92.5765 220.812C91.7032 220.686 90.8349 220.546 89.9667 220.389C88.0453 220.056 86.1393 219.67 84.259 219.237H84.2487C78.4332 217.892 72.7974 216.084 67.3774 213.842C66.2472 213.378 65.1221 212.888 64.0124 212.383C57.2104 209.297 50.7732 205.528 44.7881 201.155C44.3515 200.842 43.9199 200.519 43.4884 200.196C43.9199 200.19 44.3515 200.18 44.7881 200.17C45.3687 200.154 45.9543 200.133 46.54 200.102C49.5043 199.966 52.5508 199.669 55.6487 199.216C59.1832 198.694 62.7897 197.97 66.427 197.021C66.7455 196.938 67.064 196.854 67.3774 196.771C71.1175 195.76 74.7085 194.561 78.1198 193.211C81.3512 191.934 84.4183 190.521 87.3004 188.994C88.184 188.639 89.0728 188.243 89.9667 187.8C93.2238 186.184 96.5272 183.984 99.7741 181.274C100.046 181.055 100.313 180.826 100.581 180.591C103.221 180.904 105.903 181.065 108.621 181.065C109.941 181.065 111.251 181.029 112.551 180.956C119.974 180.534 127.085 178.918 133.697 176.301C133.969 176.197 134.236 176.087 134.503 175.978C134.719 175.889 134.93 175.801 135.14 175.712C142.327 172.678 148.898 168.446 154.611 163.259L112.556 141.924H112.551L98.9932 135.043H98.988L95.0425 133.042C95.0425 133.042 95.0322 133.042 95.0271 133.031L89.9667 130.466L69.8639 120.265L67.3774 119.009L44.7881 107.547L39.81 105.024L22.204 96.0893L2.03442 85.8622C2.13204 85.4504 2.22451 85.0438 2.32212 84.632C2.45056 84.1055 2.57899 83.5843 2.7177 83.0578C4.20242 77.2457 6.13923 71.6161 8.49218 66.2158C9.14977 64.699 9.84332 63.1977 10.5728 61.7121C11.8469 59.1006 13.2186 56.5516 14.6879 54.0652C15.849 52.1001 17.0614 50.1766 18.3355 48.2949C19.5736 46.46 20.8631 44.6721 22.204 42.9207C23.2777 41.5185 24.3874 40.1423 25.5279 38.7975C27.475 36.4883 29.5145 34.2677 31.6414 32.1305C35.7206 28.0282 40.1182 24.2543 44.7881 20.8505C46.1444 19.8548 47.5212 18.8957 48.9186 17.9731C50.0026 17.2537 51.102 16.5553 52.2117 15.8776C57.0358 12.9221 62.1064 10.3366 67.3774 8.15774C68.7543 7.58956 70.1465 7.04745 71.549 6.53662C77.4673 4.37338 83.622 2.71056 89.9667 1.6107C94.5647 0.807955 99.2603 0.297119 104.033 0.0990397C105.554 0.0312757 107.085 0 108.621 0C109.936 0 111.246 0.0260631 112.551 0.0729766C115.084 0.161591 117.591 0.33882 120.077 0.604663C125.215 1.14156 130.244 2.04856 135.14 3.28395C140.293 4.5871 145.297 6.26035 150.131 8.27242C152.715 9.34622 155.248 10.5191 157.724 11.7909C160.216 13.0576 162.651 14.4233 165.025 15.8776C167.29 17.259 169.499 18.7289 171.652 20.2719C171.95 20.4804 172.243 20.6941 172.536 20.913C171.775 20.9286 171.005 20.9547 170.229 20.9912C166.211 21.1893 162.019 21.7001 157.724 22.5393C155.582 22.9564 153.414 23.4568 151.231 24.0406C149.129 24.5983 147.013 25.2395 144.886 25.9536C141.5 27.0952 138.243 28.3879 135.14 29.8057C132.941 30.8065 130.825 31.8699 128.79 32.9958C127.912 33.3607 127.028 33.7725 126.139 34.2312C123.761 35.4562 121.367 36.9835 118.983 38.7975C117.945 39.5846 116.913 40.4238 115.88 41.3152C114.781 41.2005 113.666 41.1119 112.551 41.0441C111.251 40.9711 109.941 40.9347 108.621 40.9347C104.434 40.9347 100.334 41.3152 96.3525 42.0345C94.1897 42.4307 92.0576 42.9259 89.9667 43.5253C83.2058 45.4384 76.8714 48.3783 71.1226 52.1574L89.9667 61.7121L97.0512 65.3088L100.498 67.0551L103.637 68.6501L112.551 73.1694H112.556L135.14 84.632L139.548 86.8682L143.581 88.9168L151.092 92.722L157.724 96.0893H157.729L180.314 107.547L202.903 119.009L217 126.161Z" fill="#ECE0FE"/>
<path d="M216.913 106.348L202.035 98.7998L179.445 87.3425L172.042 83.5842L169.489 82.2915C169.489 82.2915 169.474 82.255 169.463 82.2394C169.448 82.2394 169.433 82.2498 169.417 82.255L156.861 75.8852H156.856L156.491 75.6976C156.625 75.046 156.743 74.3996 156.856 73.7585C157.349 70.9124 157.673 68.1393 157.827 65.4704C157.853 65.1212 157.868 64.7719 157.884 64.4227C158.053 60.3933 157.837 56.6038 157.231 53.153C157.216 53.0383 157.195 52.9236 157.17 52.809C157.077 52.2825 156.974 51.7664 156.856 51.2608C156.019 47.513 154.693 44.2186 152.88 41.508C151.133 38.8861 148.929 36.8115 146.273 35.4197C146.196 35.3728 146.119 35.3363 146.042 35.2946C143.576 34.0436 140.889 33.4545 138.048 33.4545C140.293 32.5058 142.61 31.6249 144.999 30.8222C147.866 29.8526 150.722 29.0342 153.537 28.3618C154.652 28.0908 155.757 27.8458 156.856 27.6321C159.224 27.1473 161.562 26.772 163.853 26.5009C167.624 26.0422 171.267 25.8598 174.724 25.9432C176.332 27.2046 177.909 28.513 179.445 29.8735C182.189 32.2869 184.814 34.8411 187.306 37.5204C188.518 38.8183 189.695 40.1475 190.84 41.508C193.378 44.5001 195.752 47.6381 197.961 50.9012C198.654 51.9228 199.332 52.9549 199.99 54.0027C200.586 54.9461 201.166 55.9 201.732 56.8644C201.834 57.0364 201.937 57.2084 202.035 57.3804C202.379 57.9695 202.723 58.5689 203.057 59.1684C204.018 60.8937 204.932 62.6452 205.8 64.4227C207.049 66.9664 208.2 69.5675 209.248 72.2207C210.409 75.1294 211.446 78.0954 212.356 81.1239C212.977 83.1724 213.543 85.2471 214.046 87.3425C214.426 88.9376 214.776 90.5483 215.089 92.1746C215.988 96.8034 216.599 101.531 216.913 106.348Z" fill="#ECE0FE"/>
<path d="M76.4912 188.415C75.7977 188.691 75.0939 188.963 74.3798 189.223C71.8008 190.177 69.119 191.037 66.3499 191.798C65.9338 191.908 65.5125 192.022 65.0913 192.132C58.8082 193.769 52.633 194.733 46.7917 195.072C45.7694 195.134 44.7573 195.176 43.7607 195.197C42.8308 195.218 41.9112 195.223 41.0019 195.212H40.9967C40.4521 195.207 39.9127 195.192 39.3784 195.176C38.5564 194.514 37.7499 193.842 36.9484 193.153C33.1416 189.88 29.5557 186.351 26.2266 182.588C24.4696 180.612 22.7845 178.569 21.1765 176.468C20.4778 175.556 19.7894 174.633 19.1215 173.695C17.3029 171.172 15.5921 168.56 13.9892 165.881C13.008 164.239 12.0678 162.566 11.1688 160.867C10.7064 159.996 10.2543 159.115 9.81763 158.229C9.43233 157.463 9.05729 156.686 8.69254 155.904C7.90651 154.21 7.15644 152.505 6.45262 150.775C6.00052 149.675 5.56898 148.565 5.15284 147.444C2.91292 141.387 1.17647 135.085 0 128.58L21.1765 139.318L28.8107 143.191L31.4616 144.535L43.7607 150.775L56.8611 157.421C56.7121 160.752 56.8354 163.916 57.2207 166.866C57.5392 169.301 58.0376 171.589 58.7157 173.695C60.2878 178.615 62.8411 182.567 66.3499 185.136V185.152L66.3962 185.173C66.3962 185.173 66.4116 185.183 66.4219 185.189C67.1411 185.715 67.8963 186.179 68.6926 186.58C69.453 186.987 70.2749 187.294 71.0815 187.55C71.0815 187.55 71.0849 187.552 71.0918 187.555C71.0918 187.555 71.0969 187.56 71.1021 187.56C71.1021 187.56 71.1055 187.562 71.1123 187.566C71.1123 187.566 71.1175 187.571 71.1226 187.571C71.1226 187.571 71.126 187.571 71.1329 187.571C71.1329 187.571 71.138 187.576 71.1432 187.576C71.1432 187.576 71.1466 187.578 71.1534 187.581C72.8539 188.123 74.6366 188.394 76.4912 188.41V188.415Z" fill="#ECE0FE"/>
</g>
<defs>
<clipPath id="clip0_105_2504">
<rect width="217" height="222" fill="white"/>
</clipPath>
</defs>
</svg>
