<svg width="159" height="47" viewBox="0 0 159 47" fill="none" xmlns="http://www.w3.org/2000/svg">
<g clip-path="url(#clip0_0_1)">
<path d="M46 26.7097C45.9597 27.0154 45.9129 27.32 45.8595 27.6213C45.7964 27.9888 45.7234 28.353 45.6428 28.7138C45.4653 29.5084 45.2475 30.2875 44.9927 31.0501C44.8315 31.5323 44.6561 32.0058 44.4645 32.4726C44.1552 33.2329 43.8067 33.9734 43.4223 34.6908C43.3634 34.8 43.3046 34.9093 43.2447 35.0174C43.1685 35.1543 43.0912 35.29 43.0117 35.4257C42.6305 36.0802 42.22 36.7136 41.78 37.325C41.4609 37.7686 41.1276 38.2001 40.7792 38.6195C39.9961 39.5619 39.1412 40.4426 38.2232 41.2504C37.9988 41.4479 37.7701 41.6411 37.5382 41.8298C37.3944 41.9478 37.2496 42.0626 37.1026 42.1763C35.9591 43.0625 34.7317 43.8438 33.4347 44.5048C33.4031 44.5214 33.3715 44.5379 33.3388 44.5534C31.8577 45.3005 30.2873 45.8909 28.6472 46.3047C28.3216 46.3864 27.9938 46.4626 27.6627 46.5299C26.4278 46.7837 25.1569 46.9382 23.8587 46.9845C23.5821 46.9945 23.3044 47 23.0256 47C21.8701 47 20.7343 46.9139 19.6245 46.7484C19.4394 46.7219 19.2553 46.6921 19.0713 46.659C18.664 46.5884 18.26 46.5067 17.8614 46.4151H17.8592C16.6264 46.1304 15.4317 45.7474 14.2828 45.2729C14.0432 45.1747 13.8047 45.071 13.5695 44.9639C12.1276 44.3106 10.763 43.5127 9.49427 42.5868C9.4017 42.5206 9.31023 42.4522 9.21875 42.3838C9.31023 42.3827 9.4017 42.3804 9.49427 42.3782C9.61733 42.3749 9.74148 42.3705 9.86564 42.3639C10.494 42.3352 11.1398 42.2723 11.7965 42.1763C12.5458 42.0659 13.3103 41.9125 14.0813 41.7117C14.1488 41.694 14.2164 41.6764 14.2828 41.6587C15.0756 41.4446 15.8368 41.1908 16.56 40.905C17.245 40.6346 17.8951 40.3355 18.5061 40.0122C18.6934 39.9371 18.8818 39.8533 19.0713 39.7595C19.7617 39.4174 20.462 38.9517 21.1503 38.3778C21.208 38.3314 21.2646 38.2829 21.3213 38.2332C21.881 38.2994 22.4495 38.3336 23.0256 38.3336C23.3055 38.3336 23.5832 38.3259 23.8587 38.3105C25.4324 38.2211 26.9396 37.879 28.3412 37.325C28.3989 37.3029 28.4556 37.2797 28.5122 37.2566C28.5579 37.2378 28.6026 37.219 28.6472 37.2003C30.1708 36.558 31.5637 35.6619 32.7747 34.5639L23.8598 30.0469H23.8587L20.9847 28.5902H20.9837L20.1473 28.1664C20.1473 28.1664 20.1451 28.1665 20.144 28.1642L19.0713 27.6213L14.8099 25.4616L14.2828 25.1956L9.49427 22.7689L8.43899 22.2348L4.70685 20.3432L0.431274 18.178C0.451966 18.0908 0.471569 18.0048 0.492261 17.9176C0.519487 17.8061 0.546713 17.6958 0.576117 17.5843C0.89085 16.3538 1.30142 15.162 1.8002 14.0187C1.9396 13.6975 2.08662 13.3797 2.24126 13.0652C2.51134 12.5123 2.80212 11.9726 3.11358 11.4462C3.35971 11.0302 3.61672 10.623 3.8868 10.2246C4.14926 9.83613 4.42261 9.45761 4.70685 9.08681C4.93446 8.78994 5.16969 8.4986 5.41146 8.21388C5.8242 7.725 6.25655 7.25488 6.70742 6.80241C7.57212 5.9339 8.50434 5.13492 9.49427 4.41429C9.78178 4.2035 10.0736 4.00045 10.3699 3.80511C10.5996 3.65282 10.8327 3.50494 11.0679 3.36148C12.0905 2.73575 13.1654 2.18838 14.2828 1.72709C14.5746 1.6068 14.8698 1.49203 15.1671 1.38388C16.4217 0.925896 17.7263 0.573857 19.0713 0.341004C20.046 0.171054 21.0414 0.0629036 22.0531 0.0209679C22.3754 0.00662143 22.7 0 23.0256 0C23.3044 0 23.5821 0.00551786 23.8587 0.01545C24.3956 0.0342107 24.9271 0.0717321 25.4542 0.128014C26.5432 0.241682 27.6094 0.433704 28.6472 0.69525C29.7395 0.971143 30.8003 1.32539 31.8251 1.75137C32.3728 1.9787 32.9097 2.22701 33.4347 2.49628C33.9628 2.76445 34.479 3.05358 34.9822 3.36148C35.4625 3.65392 35.9307 3.96513 36.3871 4.29179C36.4502 4.33593 36.5123 4.38118 36.5744 4.42753C36.4132 4.43084 36.2498 4.43636 36.0854 4.44408C35.2338 4.48602 34.3451 4.59417 33.4347 4.77184C32.9805 4.86013 32.521 4.96607 32.0581 5.08967C31.6127 5.20775 31.164 5.34349 30.7131 5.49468C29.9955 5.73636 29.305 6.01005 28.6472 6.31022C28.1811 6.52211 27.7324 6.74723 27.3012 6.98561C27.115 7.06286 26.9276 7.15004 26.7392 7.24715C26.235 7.50649 25.7275 7.82984 25.2222 8.21388C25.0022 8.38052 24.7833 8.5582 24.5644 8.74691C24.3314 8.72263 24.095 8.70387 23.8587 8.68952C23.5832 8.67407 23.3055 8.66635 23.0256 8.66635C22.138 8.66635 21.269 8.74691 20.425 8.8992C19.9665 8.98307 19.5145 9.08791 19.0713 9.21482C17.6381 9.61983 16.2953 10.2422 15.0767 11.0423L19.0713 13.0652L20.5731 13.8266L21.3038 14.1963L21.9692 14.534L23.8587 15.4908H23.8598L28.6472 17.9176L29.5816 18.391L30.4365 18.8247L32.0287 19.6303L33.4347 20.3432H33.4357L38.2232 22.7689L43.0117 25.1956L46 26.7097Z" fill="#D8D5D5"/>
<path d="M45.9815 22.515L42.8277 20.917L38.0392 18.4914L36.4699 17.6957L35.9286 17.422C35.9286 17.422 35.9253 17.4143 35.9232 17.411C35.9199 17.411 35.9166 17.4132 35.9134 17.4143L33.2517 16.0657H33.2507L33.1733 16.026C33.2016 15.8881 33.2267 15.7512 33.2507 15.6155C33.3552 15.0129 33.4238 14.4258 33.4565 13.8608C33.4619 13.7869 33.4652 13.7129 33.4685 13.639C33.5044 12.7859 33.4587 11.9836 33.3302 11.2531C33.3269 11.2288 33.3225 11.2045 33.3171 11.1802C33.2975 11.0688 33.2757 10.9595 33.2507 10.8525C33.0731 10.059 32.7922 9.36155 32.4077 8.78769C32.0375 8.23259 31.5703 7.79337 31.0072 7.49872C30.9909 7.48879 30.9746 7.48106 30.9582 7.47223C30.4355 7.20738 29.8659 7.08267 29.2637 7.08267C29.7396 6.88182 30.2307 6.69532 30.7371 6.52537C31.3448 6.32011 31.9503 6.14684 32.5471 6.00448C32.7835 5.9471 33.0176 5.89523 33.2507 5.84998C33.7527 5.74735 34.2482 5.6679 34.7339 5.61051C35.5333 5.5134 36.3054 5.47477 37.0383 5.49243C37.3792 5.75949 37.7135 6.03649 38.0392 6.32452C38.6207 6.83547 39.1772 7.37622 39.7054 7.94346C39.9624 8.21825 40.2118 8.49966 40.4547 8.78769C40.9926 9.42114 41.4958 10.0855 41.9641 10.7763C42.1111 10.9926 42.2548 11.2111 42.3942 11.433C42.5206 11.6327 42.6436 11.8347 42.7634 12.0388C42.7852 12.0752 42.807 12.1116 42.8277 12.1481C42.9006 12.2728 42.9736 12.3997 43.0444 12.5266C43.248 12.8919 43.4419 13.2627 43.6259 13.639C43.8906 14.1775 44.1345 14.7282 44.3567 15.2899C44.6028 15.9057 44.8228 16.5337 45.0156 17.1748C45.1473 17.6085 45.2671 18.0478 45.3739 18.4914C45.4544 18.8291 45.5285 19.1701 45.5949 19.5144C45.7855 20.4944 45.9151 21.4953 45.9815 22.515Z" fill="#D8D5D5"/>
<path d="M16.2147 39.8896C16.0677 39.9481 15.9185 40.0055 15.7671 40.0606C15.2204 40.2626 14.652 40.4447 14.065 40.6058C13.9767 40.629 13.8874 40.6533 13.7981 40.6764C12.4663 41.0229 11.1572 41.2271 9.91898 41.2988C9.70226 41.3121 9.48772 41.3209 9.27645 41.3253C9.07933 41.3297 8.88439 41.3308 8.69164 41.3286H8.69055C8.57511 41.3275 8.46076 41.3242 8.3475 41.3209C8.17325 41.1808 8.00227 41.0384 7.83238 40.8927C7.0254 40.1997 6.26525 39.4526 5.55955 38.6558C5.1871 38.2375 4.8299 37.8049 4.48903 37.3602C4.34092 37.1671 4.19499 36.9717 4.05341 36.7731C3.66789 36.239 3.30524 35.6861 2.96546 35.1188C2.75745 34.7712 2.55816 34.417 2.36757 34.0572C2.26956 33.8729 2.17373 33.6864 2.08116 33.4988C1.99948 33.3366 1.91998 33.1721 1.84266 33.0066C1.67603 32.6479 1.51703 32.2871 1.36784 31.9207C1.272 31.6878 1.18052 31.4528 1.09231 31.2155C0.617486 29.9332 0.24939 28.5989 0 27.2217L4.48903 29.495L6.10734 30.315L6.66929 30.5997L9.27645 31.9207L12.0535 33.3277C12.0219 34.0329 12.0481 34.7028 12.1297 35.3274C12.1973 35.8428 12.3029 36.3273 12.4466 36.7731C12.7799 37.8149 13.3211 38.6514 14.065 39.1954V39.1987L14.0748 39.2032C14.0748 39.2032 14.078 39.2054 14.0802 39.2065C14.2327 39.3179 14.3928 39.4161 14.5616 39.5011C14.7227 39.5872 14.897 39.6523 15.068 39.7064C15.068 39.7064 15.0687 39.7068 15.0701 39.7075C15.0701 39.7075 15.0712 39.7086 15.0723 39.7086C15.0723 39.7086 15.0731 39.709 15.0745 39.7097C15.0745 39.7097 15.0756 39.7108 15.0767 39.7108C15.0767 39.7108 15.0774 39.7108 15.0789 39.7108C15.0789 39.7108 15.0799 39.7119 15.081 39.7119C15.081 39.7119 15.0818 39.7123 15.0832 39.713C15.4437 39.8278 15.8216 39.8852 16.2147 39.8885V39.8896Z" fill="#D8D5D5"/>
</g>
<path d="M72.24 17.272C70.392 16.2267 68.4693 15.592 66.472 15.368V32H62.832V15.368C60.816 15.592 58.884 16.2267 57.036 17.272L55.776 14.472C57.0827 13.688 58.4827 13.1 59.976 12.708C61.488 12.316 63.0373 12.12 64.624 12.12C66.2107 12.12 67.76 12.316 69.272 12.708C70.784 13.1 72.1933 13.688 73.5 14.472L72.24 17.272ZM81.158 29.228C82.782 29.228 84.1353 28.6867 85.218 27.604L87.066 29.76C86.4127 30.5627 85.5727 31.1693 84.546 31.58C83.5193 31.9907 82.362 32.196 81.074 32.196C79.4313 32.196 77.9847 31.8693 76.734 31.216C75.4833 30.5627 74.5127 29.6573 73.822 28.5C73.15 27.324 72.814 25.9987 72.814 24.524C72.814 23.068 73.1407 21.7613 73.794 20.604C74.466 19.428 75.3807 18.5133 76.538 17.86C77.714 17.2067 79.0393 16.88 80.514 16.88C81.914 16.88 83.1833 17.188 84.322 17.804C85.4793 18.4013 86.394 19.2693 87.066 20.408C87.738 21.528 88.074 22.844 88.074 24.356L76.622 26.596C76.9767 27.4547 77.546 28.108 78.33 28.556C79.114 29.004 80.0567 29.228 81.158 29.228ZM80.514 19.68C79.226 19.68 78.1807 20.1 77.378 20.94C76.594 21.78 76.202 22.9093 76.202 24.328V24.356L84.658 22.732C84.4153 21.8173 83.9207 21.08 83.174 20.52C82.446 19.96 81.5593 19.68 80.514 19.68ZM96.3646 32.196C94.8153 32.196 93.602 31.776 92.7246 30.936C91.866 30.0773 91.4366 28.8733 91.4366 27.324V11.224H94.9366V27.072C94.9366 28.5653 95.6366 29.312 97.0366 29.312C97.5033 29.312 97.9233 29.2187 98.2966 29.032L98.4646 31.832C97.8113 32.0747 97.1113 32.196 96.3646 32.196ZM115.185 17.048V32H111.853V30.068C111.275 30.7773 110.556 31.3093 109.697 31.664C108.857 32.0187 107.924 32.196 106.897 32.196C105.441 32.196 104.135 31.8787 102.977 31.244C101.839 30.6093 100.943 29.7133 100.289 28.556C99.6548 27.3987 99.3374 26.0547 99.3374 24.524C99.3374 22.9933 99.6548 21.6587 100.289 20.52C100.943 19.3627 101.839 18.4667 102.977 17.832C104.135 17.1973 105.441 16.88 106.897 16.88C107.868 16.88 108.755 17.048 109.557 17.384C110.379 17.72 111.088 18.2147 111.685 18.868V17.048H115.185ZM107.289 29.2C108.577 29.2 109.641 28.7707 110.481 27.912C111.321 27.0533 111.741 25.924 111.741 24.524C111.741 23.124 111.321 21.9947 110.481 21.136C109.641 20.2773 108.577 19.848 107.289 19.848C106.001 19.848 104.937 20.2773 104.097 21.136C103.276 21.9947 102.865 23.124 102.865 24.524C102.865 25.924 103.276 27.0533 104.097 27.912C104.937 28.7707 106.001 29.2 107.289 29.2ZM129.285 32L125.449 26.82L121.585 32H117.721L123.545 24.412L117.973 17.048H121.865L125.533 21.948L129.201 17.048H132.981L127.381 24.356L133.233 32H129.285ZM135.816 17.048H139.316V32H135.816V17.048ZM137.58 14.584C136.945 14.584 136.413 14.388 135.984 13.996C135.554 13.5853 135.34 13.0813 135.34 12.484C135.34 11.8867 135.554 11.392 135.984 11C136.413 10.5893 136.945 10.384 137.58 10.384C138.214 10.384 138.746 10.58 139.176 10.972C139.605 11.3453 139.82 11.8213 139.82 12.4C139.82 13.016 139.605 13.5387 139.176 13.968C138.765 14.3787 138.233 14.584 137.58 14.584ZM158.525 17.048V32H155.193V30.068C154.615 30.7773 153.896 31.3093 153.037 31.664C152.197 32.0187 151.264 32.196 150.237 32.196C148.781 32.196 147.475 31.8787 146.317 31.244C145.179 30.6093 144.283 29.7133 143.629 28.556C142.995 27.3987 142.677 26.0547 142.677 24.524C142.677 22.9933 142.995 21.6587 143.629 20.52C144.283 19.3627 145.179 18.4667 146.317 17.832C147.475 17.1973 148.781 16.88 150.237 16.88C151.208 16.88 152.095 17.048 152.897 17.384C153.719 17.72 154.428 18.2147 155.025 18.868V17.048H158.525ZM150.629 29.2C151.917 29.2 152.981 28.7707 153.821 27.912C154.661 27.0533 155.081 25.924 155.081 24.524C155.081 23.124 154.661 21.9947 153.821 21.136C152.981 20.2773 151.917 19.848 150.629 19.848C149.341 19.848 148.277 20.2773 147.437 21.136C146.616 21.9947 146.205 23.124 146.205 24.524C146.205 25.924 146.616 27.0533 147.437 27.912C148.277 28.7707 149.341 29.2 150.629 29.2Z" fill="#D8D5D5"/>
<defs>
<clipPath id="clip0_0_1">
<rect width="46" height="47" fill="white"/>
</clipPath>
</defs>
</svg>
