<svg width="46" height="47" viewBox="0 0 46 47" fill="none" xmlns="http://www.w3.org/2000/svg">
<g clip-path="url(#clip0_5_68)">
<path d="M46 26.7097C45.9597 27.0154 45.9129 27.32 45.8595 27.6213C45.7964 27.9888 45.7234 28.353 45.6428 28.7138C45.4653 29.5084 45.2475 30.2875 44.9927 31.0501C44.8315 31.5323 44.6561 32.0058 44.4645 32.4726C44.1552 33.2329 43.8067 33.9734 43.4223 34.6908C43.3634 34.8 43.3046 34.9093 43.2447 35.0174C43.1685 35.1543 43.0912 35.29 43.0117 35.4257C42.6305 36.0802 42.22 36.7136 41.78 37.325C41.4609 37.7686 41.1276 38.2001 40.7792 38.6195C39.9961 39.5619 39.1412 40.4426 38.2232 41.2504C37.9988 41.4479 37.7701 41.6411 37.5382 41.8298C37.3944 41.9478 37.2496 42.0626 37.1026 42.1763C35.9591 43.0625 34.7317 43.8438 33.4347 44.5048C33.4031 44.5214 33.3715 44.5379 33.3388 44.5534C31.8577 45.3005 30.2873 45.8909 28.6472 46.3047C28.3216 46.3864 27.9938 46.4626 27.6627 46.5299C26.4278 46.7837 25.1569 46.9382 23.8587 46.9845C23.5821 46.9945 23.3044 47 23.0256 47C21.8701 47 20.7343 46.9139 19.6245 46.7484C19.4394 46.7219 19.2553 46.6921 19.0713 46.659C18.664 46.5884 18.26 46.5067 17.8614 46.4151H17.8592C16.6264 46.1304 15.4317 45.7474 14.2828 45.2729C14.0432 45.1747 13.8047 45.071 13.5695 44.9639C12.1276 44.3106 10.763 43.5127 9.49427 42.5868C9.4017 42.5206 9.31023 42.4522 9.21875 42.3838C9.31023 42.3827 9.4017 42.3804 9.49427 42.3782C9.61733 42.3749 9.74148 42.3705 9.86564 42.3639C10.494 42.3352 11.1398 42.2723 11.7965 42.1763C12.5458 42.0659 13.3103 41.9125 14.0813 41.7117C14.1488 41.694 14.2164 41.6764 14.2828 41.6587C15.0756 41.4446 15.8368 41.1908 16.56 40.905C17.245 40.6346 17.8951 40.3355 18.5061 40.0122C18.6934 39.9371 18.8818 39.8533 19.0713 39.7595C19.7617 39.4174 20.462 38.9517 21.1503 38.3778C21.208 38.3314 21.2646 38.2829 21.3213 38.2332C21.881 38.2994 22.4495 38.3336 23.0256 38.3336C23.3055 38.3336 23.5832 38.3259 23.8587 38.3105C25.4324 38.2211 26.9396 37.879 28.3412 37.325C28.3989 37.3029 28.4556 37.2797 28.5122 37.2566C28.5579 37.2378 28.6026 37.219 28.6472 37.2003C30.1708 36.558 31.5637 35.6619 32.7747 34.5639L23.8598 30.0469H23.8587L20.9847 28.5902H20.9837L20.1473 28.1664C20.1473 28.1664 20.1451 28.1665 20.144 28.1642L19.0713 27.6213L14.8099 25.4616L14.2828 25.1956L9.49427 22.7689L8.43899 22.2348L4.70685 20.3432L0.431274 18.178C0.451966 18.0908 0.471569 18.0048 0.492261 17.9176C0.519487 17.8061 0.546713 17.6958 0.576117 17.5843C0.89085 16.3538 1.30142 15.162 1.8002 14.0187C1.9396 13.6975 2.08662 13.3797 2.24126 13.0652C2.51134 12.5123 2.80212 11.9726 3.11358 11.4462C3.35971 11.0302 3.61672 10.623 3.8868 10.2246C4.14926 9.83613 4.42261 9.45761 4.70685 9.08681C4.93446 8.78994 5.16969 8.4986 5.41146 8.21388C5.8242 7.725 6.25655 7.25488 6.70742 6.80241C7.57212 5.9339 8.50434 5.13492 9.49427 4.41429C9.78178 4.2035 10.0736 4.00045 10.3699 3.80511C10.5996 3.65282 10.8327 3.50494 11.0679 3.36148C12.0905 2.73575 13.1654 2.18838 14.2828 1.72709C14.5746 1.6068 14.8698 1.49203 15.1671 1.38388C16.4217 0.925896 17.7263 0.573857 19.0713 0.341004C20.046 0.171054 21.0414 0.0629036 22.0531 0.0209679C22.3754 0.00662143 22.7 0 23.0256 0C23.3044 0 23.5821 0.00551786 23.8587 0.01545C24.3956 0.0342107 24.9271 0.0717321 25.4542 0.128014C26.5432 0.241682 27.6094 0.433704 28.6472 0.69525C29.7395 0.971143 30.8003 1.32539 31.8251 1.75137C32.3728 1.9787 32.9097 2.22701 33.4347 2.49628C33.9628 2.76445 34.479 3.05358 34.9822 3.36148C35.4625 3.65392 35.9307 3.96513 36.3871 4.29179C36.4502 4.33593 36.5123 4.38118 36.5744 4.42753C36.4132 4.43084 36.2498 4.43636 36.0854 4.44408C35.2338 4.48602 34.3451 4.59417 33.4347 4.77184C32.9805 4.86013 32.521 4.96607 32.0581 5.08967C31.6127 5.20775 31.164 5.34349 30.7131 5.49468C29.9955 5.73636 29.305 6.01005 28.6472 6.31022C28.1811 6.52211 27.7324 6.74723 27.3012 6.98561C27.115 7.06286 26.9276 7.15004 26.7392 7.24715C26.235 7.50649 25.7275 7.82984 25.2222 8.21388C25.0022 8.38052 24.7833 8.5582 24.5644 8.74691C24.3314 8.72263 24.095 8.70387 23.8587 8.68952C23.5832 8.67407 23.3055 8.66635 23.0256 8.66635C22.138 8.66635 21.269 8.74691 20.425 8.8992C19.9665 8.98307 19.5145 9.08791 19.0713 9.21482C17.6381 9.61983 16.2953 10.2422 15.0767 11.0423L19.0713 13.0652L20.5731 13.8266L21.3038 14.1963L21.9692 14.534L23.8587 15.4908H23.8598L28.6472 17.9176L29.5816 18.391L30.4365 18.8247L32.0287 19.6303L33.4347 20.3432H33.4357L38.2232 22.7689L43.0117 25.1956L46 26.7097Z" fill="#FFE2E2"/>
<path d="M45.9815 22.5151L42.8277 20.9171L38.0392 18.4915L36.4699 17.6958L35.9286 17.4221C35.9286 17.4221 35.9253 17.4144 35.9232 17.4111C35.9199 17.4111 35.9166 17.4133 35.9134 17.4144L33.2517 16.0658H33.2507L33.1733 16.0261C33.2016 15.8881 33.2267 15.7513 33.2507 15.6155C33.3552 15.013 33.4238 14.4259 33.4565 13.8609C33.4619 13.7869 33.4652 13.713 33.4685 13.639C33.5044 12.786 33.4587 11.9837 33.3302 11.2531C33.3269 11.2289 33.3225 11.2046 33.3171 11.1803C33.2975 11.0688 33.2757 10.9596 33.2507 10.8525C33.0731 10.0591 32.7922 9.36161 32.4077 8.78775C32.0375 8.23266 31.5703 7.79343 31.0072 7.49878C30.9909 7.48885 30.9746 7.48112 30.9582 7.47229C30.4355 7.20744 29.8659 7.08273 29.2637 7.08273C29.7396 6.88188 30.2307 6.69538 30.7371 6.52543C31.3448 6.32017 31.9503 6.14691 32.5471 6.00455C32.7835 5.94716 33.0176 5.89529 33.2507 5.85005C33.7527 5.74741 34.2482 5.66796 34.7339 5.61057C35.5333 5.51346 36.3054 5.47483 37.0383 5.49249C37.3792 5.75955 37.7135 6.03655 38.0392 6.32458C38.6207 6.83553 39.1772 7.37628 39.7054 7.94352C39.9624 8.21831 40.2118 8.49972 40.4547 8.78775C40.9926 9.4212 41.4958 10.0856 41.9641 10.7764C42.1111 10.9927 42.2548 11.2112 42.3942 11.433C42.5206 11.6328 42.6436 11.8347 42.7634 12.0389C42.7852 12.0753 42.807 12.1117 42.8277 12.1481C42.9006 12.2728 42.9736 12.3997 43.0444 12.5267C43.248 12.8919 43.4419 13.2627 43.6259 13.639C43.8906 14.1776 44.1345 14.7283 44.3567 15.29C44.6028 15.9058 44.8228 16.5337 45.0156 17.1749C45.1473 17.6086 45.2671 18.0478 45.3739 18.4915C45.4544 18.8291 45.5285 19.1701 45.5949 19.5145C45.7855 20.4944 45.9151 21.4954 45.9815 22.5151Z" fill="#FFE2E2"/>
<path d="M16.2147 39.8897C16.0677 39.9482 15.9185 40.0056 15.7671 40.0608C15.2204 40.2627 14.652 40.4448 14.065 40.6059C13.9767 40.6291 13.8874 40.6534 13.7981 40.6765C12.4663 41.0231 11.1572 41.2272 9.91898 41.299C9.70226 41.3122 9.48772 41.321 9.27645 41.3254C9.07933 41.3299 8.88439 41.331 8.69164 41.3288H8.69055C8.57511 41.3277 8.46076 41.3243 8.3475 41.321C8.17325 41.1809 8.00227 41.0385 7.83238 40.8928C7.0254 40.1998 6.26525 39.4527 5.55955 38.6559C5.1871 38.2377 4.8299 37.8051 4.48903 37.3603C4.34092 37.1672 4.19499 36.9719 4.05341 36.7732C3.66789 36.2391 3.30524 35.6862 2.96546 35.119C2.75745 34.7713 2.55816 34.4171 2.36757 34.0573C2.26956 33.873 2.17373 33.6865 2.08116 33.4989C1.99948 33.3367 1.91998 33.1723 1.84266 33.0067C1.67603 32.6481 1.51703 32.2872 1.36784 31.9208C1.272 31.688 1.18052 31.4529 1.09231 31.2156C0.617486 29.9333 0.24939 28.5991 0 27.2218L4.48903 29.4952L6.10734 30.3151L6.66929 30.5998L9.27645 31.9208L12.0535 33.3279C12.0219 34.033 12.0481 34.7029 12.1297 35.3275C12.1973 35.8429 12.3029 36.3274 12.4466 36.7732C12.7799 37.815 13.3211 38.6515 14.065 39.1956V39.1989L14.0748 39.2033C14.0748 39.2033 14.078 39.2055 14.0802 39.2066C14.2327 39.3181 14.3928 39.4163 14.5616 39.5012C14.7227 39.5873 14.897 39.6524 15.068 39.7065C15.068 39.7065 15.0687 39.7069 15.0701 39.7076C15.0701 39.7076 15.0712 39.7087 15.0723 39.7087C15.0723 39.7087 15.0731 39.7091 15.0745 39.7098C15.0745 39.7098 15.0756 39.7109 15.0767 39.7109C15.0767 39.7109 15.0774 39.7109 15.0789 39.7109C15.0789 39.7109 15.0799 39.712 15.081 39.712C15.081 39.712 15.0818 39.7124 15.0832 39.7131C15.4437 39.8279 15.8216 39.8853 16.2147 39.8886V39.8897Z" fill="#FFE2E2"/>
</g>
<defs>
<clipPath id="clip0_5_68">
<rect width="46" height="47" fill="white"/>
</clipPath>
</defs>
</svg>
