<svg width="11" height="11" viewBox="0 0 11 11" fill="none" xmlns="http://www.w3.org/2000/svg">
<path fill-rule="evenodd" clip-rule="evenodd" d="M0.709209 0.709209C0.988155 0.430264 1.44042 0.430264 1.71936 0.709209L10.2908 9.28064C10.5697 9.55958 10.5697 10.0118 10.2908 10.2908C10.0118 10.5697 9.55958 10.5697 9.28064 10.2908L0.709209 1.71936C0.430264 1.44042 0.430264 0.988155 0.709209 0.709209Z" fill="#A5ADBB"/>
<path fill-rule="evenodd" clip-rule="evenodd" d="M10.2908 0.709209C10.0118 0.430264 9.55958 0.430264 9.28064 0.709209L0.709209 9.28064C0.430263 9.55958 0.430263 10.0118 0.709209 10.2908C0.988155 10.5697 1.44042 10.5697 1.71936 10.2908L10.2908 1.71936C10.5697 1.44042 10.5697 0.988155 10.2908 0.709209Z" fill="#A5ADBB"/>
</svg>
